<?xml version="1.0" encoding="UTF-8"?>
<svg version="1.1" xmlns="http://www.w3.org/2000/svg" width="2000" height="2000">
<path d="M0 0 C1.80247523 -0.0070206 3.6049502 -0.01410743 5.40742493 -0.02125549 C11.14010981 -0.04066998 16.87275432 -0.04568986 22.60546875 -0.046875 C24.07008671 -0.04753778 24.07008671 -0.04753778 25.56429291 -0.04821396 C53.88709534 -0.05493822 82.0715959 0.08800553 110.27716064 2.94989014 C112.93375176 3.21729586 115.59141772 3.47113786 118.24951172 3.72314453 C158.0999938 7.53873567 197.68298949 13.64266531 236.79296875 22.203125 C237.90233795 22.44582123 237.90233795 22.44582123 239.03411865 22.69342041 C276.97969324 31.03678618 314.20686609 41.81183131 350.90393066 54.54870605 C352.65825168 55.156455 354.41449883 55.75863617 356.17089844 56.36035156 C387.44016274 67.09721089 417.90309133 80.10929894 447.79296875 94.203125 C448.84638458 94.69969604 448.84638458 94.69969604 449.92108154 95.20629883 C466.90746623 103.22715305 483.72139615 111.46988643 500.09570312 120.69042969 C502.98034604 122.30821096 505.87773782 123.90139282 508.77734375 125.4921875 C552.96722971 149.83251627 595.02139601 178.18630098 634.79296875 209.203125 C635.94268366 210.09378185 637.09242403 210.98440584 638.2421875 211.875 C645.20186036 217.28520061 651.99754109 222.85213126 658.69921875 228.578125 C661.58848195 231.04228464 664.52815333 233.439735 667.48046875 235.828125 C671.93200683 239.45146995 676.2167933 243.22276372 680.4609375 247.0859375 C682.55120764 248.98363669 684.6628299 250.85045915 686.79296875 252.703125 C702.60556951 266.50777645 717.74953391 280.98788359 732.5690918 295.84887695 C734.88149598 298.16671338 737.19929773 300.47905804 739.51757812 302.79101562 C741.01724832 304.29134564 742.51660881 305.7919853 744.015625 307.29296875 C744.69488541 307.97020493 745.37414581 308.6474411 746.07398987 309.34519958 C749.94652413 313.23655547 753.64327786 317.22960994 757.22157288 321.39361572 C759.78588443 324.34649706 762.48468257 327.17130878 765.16796875 330.015625 C769.89169984 335.05878318 774.36131166 340.23003476 778.68359375 345.625 C780.81282021 348.2273879 783.02746232 350.71888002 785.29296875 353.203125 C789.9976489 358.37827316 794.39733218 363.7651534 798.79296875 369.203125 C799.80379642 370.43432587 800.81556924 371.66475118 801.828125 372.89453125 C814.12471353 387.86267794 825.53085758 403.44780449 836.79296875 419.203125 C837.3142334 419.93208984 837.83549805 420.66105469 838.37255859 421.41210938 C844.93497749 430.60649245 851.36165072 439.8778087 857.55859375 449.32275391 C858.37654623 450.5687725 859.19683292 451.81326215 860.01953125 453.05615234 C874.0189887 474.21492353 886.96812921 496.04133031 899.18164062 518.27294922 C900.73607196 521.09965904 902.30235822 523.91949107 903.87109375 526.73828125 C945.87202567 602.53000199 976.2102501 685.04238576 1018.98046875 906.265625 C1019.05946411 907.04892181 1019.13845947 907.83221863 1019.21984863 908.63925171 C1022.22900566 938.85082151 1023.18137515 969.16399221 1023.11102676 999.50886154 C1023.10534519 1002.00746475 1023.10255043 1004.50606105 1023.09994507 1007.00466919 C1023.05790231 1034.81976727 1022.32333903 1062.48888626 1019.79296875 1090.203125 C1019.70575562 1091.16361755 1019.61854248 1092.12411011 1019.52868652 1093.1137085 C1011.56323237 1179.78765007 992.49902051 1264.66752912 927.79296875 1429.203125 C927.28378906 1430.28319824 926.77460937 1431.36327148 926.25 1432.47607422 C916.12415343 1453.9544525 905.32916803 1474.89624687 893.2421875 1495.33984375 C890.47320467 1500.02492249 887.77446321 1504.74510797 885.10302734 1509.48632812 C879.36513426 1519.65626188 873.2594618 1529.4837219 866.79296875 1539.203125 C865.74652183 1540.78643598 864.70009478 1542.36976013 863.65405273 1543.95333862 C854.90992012 1557.18400808 846.10305816 1570.3613066 836.79296875 1583.203125 C836.2525293 1583.94933105 835.71208984 1584.69553711 835.15527344 1585.46435547 C823.82243925 1601.06879639 812.08671655 1616.34331979 799.79296875 1631.203125 C799.10332031 1632.05519531 798.41367188 1632.90726563 797.703125 1633.78515625 C788.43028774 1645.23786483 778.69210979 1656.29010546 768.79296875 1667.203125 C767.35522174 1668.80707029 765.91772798 1670.41124261 764.48046875 1672.015625 C762.91872663 1673.7454762 761.35612013 1675.47454716 759.79296875 1677.203125 C759.01058838 1678.07235596 758.22820801 1678.94158691 757.42211914 1679.8371582 C748.64654074 1689.47247068 739.46246122 1698.68591211 730.23730469 1707.88916016 C727.5307355 1710.59033386 724.82959979 1713.29685929 722.12890625 1716.00390625 C720.38703955 1717.74511265 718.64486295 1719.48600909 716.90234375 1721.2265625 C716.10632751 1722.02460297 715.31031128 1722.82264343 714.49017334 1723.64486694 C710.29771733 1727.81996851 706.03109977 1731.84337894 701.53895569 1735.69525146 C698.77989316 1738.07803983 696.13879235 1740.5843463 693.48046875 1743.078125 C688.60711326 1747.61661024 683.58992898 1751.89661297 678.39453125 1756.06640625 C675.84310146 1758.16194994 673.40970102 1760.34275655 670.98046875 1762.578125 C666.60788439 1766.55820966 662.05127584 1770.21659997 657.38305664 1773.83764648 C653.51739093 1776.83841282 649.70389739 1779.89273653 645.92089844 1782.99707031 C637.39681806 1789.99172037 628.68408349 1796.68255351 619.79296875 1803.203125 C619.10541504 1803.70779297 618.41786133 1804.21246094 617.70947266 1804.73242188 C599.56500335 1818.01519516 581.19581705 1830.94190248 562.07275391 1842.78076172 C559.80435078 1844.19602373 557.55259343 1845.63446789 555.3046875 1847.08203125 C474.21126141 1899.19795688 383.63723089 1938.46878679 98.91796875 1997.953125 C98.18894348 1998.01238159 97.45991821 1998.07163818 96.70880127 1998.13269043 C78.53943974 1999.58474687 60.39778814 2000.36246016 42.171875 2000.40625 C40.34974647 2000.41327345 38.52761817 2000.42036026 36.70549011 2000.42750549 C30.92214599 2000.44688233 25.13884207 2000.45193897 19.35546875 2000.453125 C17.87742516 2000.45378778 17.87742516 2000.45378778 16.36952209 2000.45446396 C-12.06856234 2000.46115151 -40.38929273 2000.3711883 -68.70758057 1997.45959473 C-71.35690866 1997.18774601 -74.00719713 1996.92697162 -76.65771484 1996.66699219 C-156.06730294 1988.7866744 -234.36593867 1971.67020308 -474.14990234 1869.02294922 C-477.36402517 1867.10967086 -480.590713 1865.21905688 -483.8203125 1863.33203125 C-506.24575458 1850.19885494 -528.07652489 1836.33509325 -549.20703125 1821.203125 C-550.70699308 1820.13666507 -552.20699255 1819.07025806 -553.70703125 1818.00390625 C-565.39924811 1809.65672365 -576.83264545 1800.97691684 -588.20703125 1792.203125 C-588.89345703 1791.67412598 -589.57988281 1791.14512695 -590.28710938 1790.60009766 C-597.72341605 1784.85507406 -604.974095 1778.92938866 -612.1171875 1772.82421875 C-614.98280819 1770.38009166 -617.90108647 1768.00616766 -620.83203125 1765.640625 C-625.59510343 1761.76499567 -630.14067374 1757.69078211 -634.66015625 1753.53515625 C-636.79644874 1751.57907248 -638.95483782 1749.66124803 -641.14453125 1747.765625 C-646.59703845 1743.01951549 -651.89568485 1738.10558028 -657.20703125 1733.203125 C-657.7602002 1732.69352234 -658.31336914 1732.18391968 -658.88330078 1731.65887451 C-668.03730425 1723.21587124 -676.98043611 1714.58909723 -685.77148438 1705.76904297 C-687.73061781 1703.80447299 -689.69514769 1701.84541052 -691.66015625 1699.88671875 C-697.18038836 1694.36940123 -702.67395838 1688.8787282 -707.72949219 1682.92578125 C-710.40120281 1679.81084567 -713.25958816 1676.86837378 -716.08203125 1673.890625 C-720.97552973 1668.69209069 -725.61813245 1663.38322147 -730.07421875 1657.80078125 C-732.318324 1655.06757614 -734.67570878 1652.48175907 -737.08203125 1649.890625 C-741.24509807 1645.36248924 -745.06917431 1640.66799229 -748.82641602 1635.80615234 C-751.89343704 1631.84620114 -755.0427068 1627.97054258 -758.25512695 1624.12768555 C-765.70895752 1615.20516054 -772.68123105 1605.99709267 -779.49121094 1596.57617188 C-781.18479197 1594.2338828 -782.88643241 1591.89764659 -784.58984375 1589.5625 C-812.28320186 1551.52127825 -836.97576461 1511.66183006 -859.20703125 1470.203125 C-859.90965088 1468.89480713 -859.90965088 1468.89480713 -860.62646484 1467.56005859 C-901.24383364 1391.61955573 -931.58660428 1310.35331204 -975.06628418 1062.38131714 C-975.15807511 1060.96076693 -975.25336802 1059.54043739 -975.35266113 1058.12039185 C-976.65253919 1039.24716236 -976.4527824 1020.2987333 -976.45703125 1001.390625 C-976.45747311 1000.48982082 -976.45791496 999.58901665 -976.45837021 998.66091537 C-976.46580149 969.73214218 -975.9378144 941.02279286 -973.20703125 912.203125 C-973.03362588 910.31657503 -972.86028752 908.4300189 -972.68701172 906.54345703 C-966.04363933 835.30180194 -951.70297847 765.42003122 -930.20703125 697.203125 C-929.96339844 696.42990906 -929.71976563 695.65669312 -929.46875 694.86004639 C-918.1789237 659.15160803 -904.74012046 624.27804271 -889.20703125 590.203125 C-888.91227905 589.55623718 -888.61752686 588.90934937 -888.31384277 588.24285889 C-872.95782144 554.59342305 -855.94155435 522.09990235 -837.20703125 490.203125 C-836.65354004 489.25920898 -836.10004883 488.31529297 -835.52978516 487.34277344 C-821.32637008 463.24547147 -805.66811771 439.81878491 -789.20703125 417.203125 C-788.67239258 416.46562012 -788.13775391 415.72811523 -787.58691406 414.96826172 C-772.66025335 394.41330691 -757.06210593 374.34510857 -740.43603516 355.13305664 C-737.53339393 351.77475153 -734.72030777 348.36565456 -731.95703125 344.890625 C-726.64944996 338.3433167 -720.79700545 332.31145271 -714.9921875 326.20703125 C-712.14929415 323.21418308 -709.37145264 320.17760491 -706.64453125 317.078125 C-702.15287341 312.02175196 -697.34751817 307.28856544 -692.52124023 302.55419922 C-689.77591884 299.84669217 -687.19092779 297.18332903 -684.75390625 294.1875 C-682.14202599 291.12695319 -679.36338727 288.65519721 -676.3125 286.05078125 C-672.77075637 282.94272051 -669.50510338 279.5656126 -666.20703125 276.203125 C-661.65108331 271.5581937 -657.03119846 267.09327296 -652.10009766 262.84667969 C-649.29664665 260.41273176 -646.60179779 257.86781717 -643.89453125 255.328125 C-639.02117576 250.78963976 -634.00399148 246.50963703 -628.80859375 242.33984375 C-626.25716396 240.24430006 -623.82376352 238.06349345 -621.39453125 235.828125 C-617.02002299 231.84628913 -612.4617405 228.18570417 -607.79052734 224.56420898 C-603.97388557 221.60267016 -600.21491408 218.58352671 -596.48730469 215.51074219 C-587.73000785 208.30064023 -578.69192628 201.53369699 -569.50830078 194.87792969 C-567.41729269 193.35614786 -565.33936482 191.81861822 -563.265625 190.2734375 C-540.49237839 173.41733732 -516.55356571 157.68466816 -492.20703125 143.203125 C-491.27068848 142.64512207 -490.3343457 142.08711914 -489.36962891 141.51220703 C-475.16229525 133.07420749 -460.78320652 124.98532027 -446.20703125 117.203125 C-445.33916992 116.7376123 -444.47130859 116.27209961 -443.57714844 115.79248047 C-396.22342007 90.46149125 -347.07415362 69.31938978 -296.17626953 52.20751953 C-293.3247071 51.24293083 -290.4821202 50.25551245 -287.640625 49.26171875 C-209.5551344 22.21871009 -126.24557416 7.29256755 -37.20703125 1.203125 C-36.5229548 1.15793889 -35.83887835 1.11275278 -35.1340723 1.0661974 C-23.41671573 0.30998185 -11.73997349 0.02839866 0 0 Z M-891.20703125 780.203125 C-890.20703125 782.203125 -890.20703125 782.203125 -890.20703125 782.203125 Z M-893.20703125 794.203125 C-892.20703125 796.203125 -892.20703125 796.203125 -892.20703125 796.203125 Z M-895.20703125 810.203125 C-894.20703125 812.203125 -894.20703125 812.203125 -894.20703125 812.203125 Z M-896.20703125 819.203125 C-895.20703125 821.203125 -895.20703125 821.203125 -895.20703125 821.203125 Z M-897.20703125 828.203125 C-896.20703125 831.203125 -896.20703125 831.203125 -896.20703125 831.203125 Z M-898.20703125 839.203125 C-897.20703125 842.203125 -897.20703125 842.203125 -897.20703125 842.203125 Z M-899.20703125 851.203125 C-898.20703125 854.203125 -898.20703125 854.203125 -898.20703125 854.203125 Z M-900.20703125 863.203125 C-899.20703125 866.203125 -899.20703125 866.203125 -899.20703125 866.203125 Z M-901.20703125 877.203125 C-900.20703125 881.203125 -900.20703125 881.203125 -900.20703125 881.203125 Z M-902.20703125 891.203125 C-902.20703125 893.183125 -902.20703125 895.163125 -902.20703125 897.203125 C-901.87703125 897.203125 -901.54703125 897.203125 -901.20703125 897.203125 C-901.20703125 895.223125 -901.20703125 893.243125 -901.20703125 891.203125 C-901.53703125 891.203125 -901.86703125 891.203125 -902.20703125 891.203125 Z M-903.20703125 910.203125 C-903.20703125 911.853125 -903.20703125 913.503125 -903.20703125 915.203125 C-902.87703125 915.203125 -902.54703125 915.203125 -902.20703125 915.203125 C-902.20703125 913.553125 -902.20703125 911.903125 -902.20703125 910.203125 C-902.53703125 910.203125 -902.86703125 910.203125 -903.20703125 910.203125 Z M-904.20703125 934.203125 C-904.20703125 937.173125 -904.20703125 940.143125 -904.20703125 943.203125 C-903.87703125 943.203125 -903.54703125 943.203125 -903.20703125 943.203125 C-903.20703125 940.233125 -903.20703125 937.263125 -903.20703125 934.203125 C-903.53703125 934.203125 -903.86703125 934.203125 -904.20703125 934.203125 Z M-904.20703125 1015.203125 C-904.20703125 1017.843125 -904.20703125 1020.483125 -904.20703125 1023.203125 C-903.87703125 1023.203125 -903.54703125 1023.203125 -903.20703125 1023.203125 C-903.20703125 1020.563125 -903.20703125 1017.923125 -903.20703125 1015.203125 C-903.53703125 1015.203125 -903.86703125 1015.203125 -904.20703125 1015.203125 Z M-903.20703125 1040.203125 C-903.20703125 1041.853125 -903.20703125 1043.503125 -903.20703125 1045.203125 C-902.87703125 1045.203125 -902.54703125 1045.203125 -902.20703125 1045.203125 C-902.20703125 1043.553125 -902.20703125 1041.903125 -902.20703125 1040.203125 C-902.53703125 1040.203125 -902.86703125 1040.203125 -903.20703125 1040.203125 Z M-902.20703125 1056.203125 C-902.20703125 1057.853125 -902.20703125 1059.503125 -902.20703125 1061.203125 C-901.87703125 1061.203125 -901.54703125 1061.203125 -901.20703125 1061.203125 C-901.20703125 1059.553125 -901.20703125 1057.903125 -901.20703125 1056.203125 C-901.53703125 1056.203125 -901.86703125 1056.203125 -902.20703125 1056.203125 Z M-901.20703125 1071.203125 C-900.20703125 1074.203125 -900.20703125 1074.203125 -900.20703125 1074.203125 Z M-900.20703125 1082.203125 C-899.20703125 1085.203125 -899.20703125 1085.203125 -899.20703125 1085.203125 Z M-899.20703125 1093.203125 C-898.20703125 1095.203125 -898.20703125 1095.203125 -898.20703125 1095.203125 Z M-898.20703125 1102.203125 C-897.20703125 1105.203125 -897.20703125 1105.203125 -897.20703125 1105.203125 Z M-897.20703125 1111.203125 C-896.20703125 1113.203125 -896.20703125 1113.203125 -896.20703125 1113.203125 Z M-896.20703125 1119.203125 C-895.20703125 1121.203125 -895.20703125 1121.203125 -895.20703125 1121.203125 Z M-895.20703125 1126.203125 C-894.20703125 1128.203125 -894.20703125 1128.203125 -894.20703125 1128.203125 Z M-894.20703125 1133.203125 C-893.20703125 1135.203125 -893.20703125 1135.203125 -893.20703125 1135.203125 Z M-893.20703125 1140.203125 C-892.20703125 1142.203125 -892.20703125 1142.203125 -892.20703125 1142.203125 Z M-892.20703125 1146.203125 C-891.20703125 1148.203125 -891.20703125 1148.203125 -891.20703125 1148.203125 Z " fill="#000000" transform="translate(976.20703125,-0.203125)"/>
<path d="M0 0 C11.43427648 8.87927726 21.51261151 19.33786366 31.62451172 29.65795898 C40.05625418 39.14148759 40.05625418 39.14148759 50.25 46.1875 C52.92163698 45.89427217 52.92163698 45.89427217 55.25 45.1875 C55.00765625 43.93090576 54.7653125 42.67431152 54.515625 41.37963867 C53.61830279 36.722946 52.72461516 32.065562 51.83203125 27.40795898 C51.44500448 25.3911664 51.05698868 23.37456336 50.66796875 21.3581543 C50.10938332 18.46191734 49.55434348 15.56502021 49 12.66796875 C48.82500977 11.76475388 48.65001953 10.861539 48.46972656 9.93095398 C48.30956055 9.09030899 48.14939453 8.249664 47.984375 7.38354492 C47.84225586 6.64408127 47.70013672 5.90461761 47.55371094 5.14274597 C47.25 3.1875 47.25 3.1875 47.25 0.1875 C55.55743839 -0.69211112 62.2392877 1.58691544 69.98168945 4.40625 C72.77973556 5.36995117 75.60471173 6.22198211 78.4375 7.078125 C115.20856122 18.29972497 149.74439801 34.75073019 180.25 58.1875 C181.45701473 59.09898021 182.66404658 60.01043774 183.87109375 60.921875 C199.8285267 73.06889191 203.9006708 83.68705183 208.83056641 102.93652344 C210.6468372 110.00092617 212.61609007 117.00646221 214.6875 124 C217.2788219 132.76265466 219.74915199 141.55139014 222.125 150.375 C222.4233374 151.48012939 222.7216748 152.58525879 223.02905273 153.72387695 C224.22640007 158.19762419 225.38135964 162.63662445 226.25 167.1875 C221.34297354 165.57723307 217.57054758 162.74883616 213.4375 159.75 C211.90295055 158.65149559 210.36778082 157.55385722 208.83203125 156.45703125 C207.67501709 155.62872803 207.67501709 155.62872803 206.49462891 154.78369141 C203.23102297 152.46288919 199.93128305 150.19690042 196.625 147.9375 C189.97753797 143.38622842 183.36036339 138.79247225 176.75 134.1875 C169.64243084 129.23698873 162.52449076 124.30299504 155.38012695 119.40576172 C149.54667466 115.40225237 143.74237947 111.35728551 137.9375 107.3125 C123.18683117 97.04320058 108.45046577 86.78387888 93.25 77.1875 C93.07911865 77.83219238 92.9082373 78.47688477 92.73217773 79.14111328 C90.75602756 86.50169918 88.57329998 93.78487721 86.3125 101.0625 C85.97798828 102.14402344 85.64347656 103.22554687 85.29882812 104.33984375 C84.62541505 106.51708293 83.95045823 108.69384527 83.27392578 110.87011719 C82.56561326 113.16495519 81.86667384 115.46269953 81.17529297 117.76269531 C80.82740723 118.91608398 80.47952148 120.06947266 80.12109375 121.2578125 C79.80970459 122.29953613 79.49831543 123.34125977 79.17749023 124.41455078 C78.37260149 126.82095413 77.45636166 128.96155095 76.25 131.1875 C72.84408781 129.89871547 69.75078175 128.42230777 66.6171875 126.5703125 C65.73925537 126.05243164 64.86132324 125.53455078 63.95678711 125.00097656 C62.55505249 124.16518066 62.55505249 124.16518066 61.125 123.3125 C59.65075562 122.43803223 59.65075562 122.43803223 58.14672852 121.54589844 C52.09638579 117.93902907 46.11888508 114.23603076 40.1875 110.4375 C23.7987041 99.96417617 6.89554355 90.2190586 -10.125 80.8125 C-10.9080249 80.3786499 -11.6910498 79.9447998 -12.49780273 79.49780273 C-19.28094151 75.79307906 -25.7236549 72.94900223 -33.375 71.5 C-34.64601563 71.24863281 -35.91703125 70.99726562 -37.2265625 70.73828125 C-47.95224725 69.17883372 -58.05415813 70.44245157 -68.5625 72.75 C-69.82151123 73.02030029 -71.08052246 73.29060059 -72.37768555 73.5690918 C-117.03331661 83.40340989 -166.16106694 101.80833783 -199.75 134.1875 C-199.75 134.8475 -199.75 135.5075 -199.75 136.1875 C-198.25280991 137.52312563 -198.25280991 137.52312563 -196.27734375 138.83203125 C-195.54193359 139.34443359 -194.80652344 139.85683594 -194.04882812 140.38476562 C-192.8799707 141.18430664 -192.8799707 141.18430664 -191.6875 142 C-190.17568407 143.04803692 -188.66396431 144.09621257 -187.15234375 145.14453125 C-186.41612793 145.65193848 -185.67991211 146.1593457 -184.92138672 146.68212891 C-181.84051977 148.81802115 -178.79449888 151.00015087 -175.75 153.1875 C-178.16030171 155.90671222 -180.67322479 157.32697726 -183.9140625 158.9375 C-185.46178345 159.71830933 -185.46178345 159.71830933 -187.04077148 160.51489258 C-188.14106689 161.06685303 -189.2413623 161.61881348 -190.375 162.1875 C-204.78487638 169.55199713 -218.47134353 177.56869657 -230.75 188.1875 C-231.56597656 188.88230469 -232.38195312 189.57710937 -233.22265625 190.29296875 C-242.31809409 198.23566176 -250.46308777 206.83709573 -256.75 217.1875 C-255.76 216.8575 -254.77 216.5275 -253.75 216.1875 C-242.53720668 215.42928771 -232.52545971 216.06352325 -223.61328125 223.421875 C-216.20642142 230.44053462 -212.18112781 238.95985443 -207.81347656 248.00537109 C-193.51096229 277.35244928 -174.51099895 299.23382837 -143.15979576 310.32174301 C-123.65443292 316.82345139 -102.91169396 316.61955591 -82.6015625 316.515625 C-79.92954848 316.51255431 -77.25755433 316.51058802 -74.58554077 316.50994873 C-69.01351276 316.50628844 -63.44161025 316.49150337 -57.86962891 316.46875 C-50.82579086 316.44003555 -43.78205306 316.4295837 -36.73816299 316.42494965 C4.26700932 316.41429747 4.26700932 316.41429747 45.25 315.1875 C44.75371094 314.7028125 44.25742188 314.218125 43.74609375 313.71875 C40.27697462 310.29571025 36.89554784 306.85061665 33.71484375 303.15625 C30.25717969 299.14430392 26.58046017 295.40674674 22.8125 291.6875 C22.12873291 291.00751953 21.44496582 290.32753906 20.74047852 289.62695312 C18.57942945 287.47799074 16.41515274 285.33232721 14.25 283.1875 C11.39283983 280.35716163 8.53916546 277.52337327 5.6875 274.6875 C5.04562744 274.05392578 4.40375488 273.42035156 3.74243164 272.76757812 C-0.08374648 268.96186619 -3.69274888 265.03792522 -7.18382263 260.92178345 C-17.15440098 249.88101032 -33.25805438 243.480251 -47.75 242.1875 C-56.86524302 241.90974591 -66.00014122 242.15220369 -75.11621094 242.30395508 C-92.04337231 242.56451117 -108.164805 241.8839187 -124.375 236.5 C-125.15222412 236.24798828 -125.92944824 235.99597656 -126.73022461 235.73632812 C-141.51748093 230.73951479 -155.51173077 222.82770091 -167.75 213.1875 C-161.02382462 198.20544361 -141.5531053 185.63180289 -127.11328125 179.40625 C-94.74745876 167.67786833 -60.47335866 180.4149883 -30.93798828 194.21386719 C-26.69522209 196.23286346 -22.48661314 198.30409315 -18.3203125 200.4765625 C-17.67296143 200.81220215 -17.02561035 201.1478418 -16.35864258 201.49365234 C-14.71488774 202.35742239 -13.0851448 203.24772247 -11.45703125 204.140625 C-7.42046277 205.70166447 -4.84350327 204.66764448 -0.9543457 202.95996094 C0.04508057 202.45239258 1.04450684 201.94482422 2.07421875 201.421875 C3.18603516 200.86113281 4.29785156 200.30039062 5.44335938 199.72265625 C6.59642578 199.13355469 7.74949219 198.54445313 8.9375 197.9375 C10.07123047 197.36386719 11.20496094 196.79023437 12.37304688 196.19921875 C14.60580512 195.06932726 16.83744306 193.93721882 19.06787109 192.80273438 C23.45185323 190.57744469 27.8492649 188.37943224 32.25 186.1875 C33.875 188.3125 33.875 188.3125 35.25 191.1875 C33.70517117 197.29368734 30.6918994 203.01613458 28.08398438 208.73046875 C27.73529297 209.50261719 27.38660156 210.27476562 27.02734375 211.0703125 C26.55155884 212.11276123 26.55155884 212.11276123 26.06616211 213.17626953 C23.52315 219.44289643 23.1753258 226.12647665 25.5625 232.5 C28.47725891 238.4011084 33.19178163 242.92100052 37.72363281 247.59619141 C39.73792904 249.69618866 41.69086972 251.84879969 43.64770508 254.00219727 C48.85487825 259.72225677 54.24658023 265.2228768 59.7434082 270.66381836 C63.10565293 274.0047284 66.30868019 277.41741782 69.37890625 281.03125 C71.93647056 283.97858924 74.59475576 286.82825578 77.25 289.6875 C83.75870865 296.70860275 90.02190594 303.91759728 96.25 311.1875 C96.88164063 311.05698242 97.51328125 310.92646484 98.1640625 310.79199219 C142.75237282 301.6205494 142.75237282 301.6205494 159.15283203 301.23876953 C160.60730771 301.20321192 162.06148396 301.15373919 163.51513672 301.09326172 C179.3612154 300.4566032 194.93538019 302.05991411 210.66601562 303.7644043 C211.51715439 303.85626511 212.36829315 303.94812592 213.245224 304.04277039 C214.85024097 304.21751608 216.45489753 304.39561783 218.05909729 304.57771301 C222.14730359 305.02794327 226.12857003 305.27886074 230.25 305.1875 C229.60933594 304.5584375 228.96867187 303.929375 228.30859375 303.28125 C220.38044807 295.43581225 220.38044807 295.43581225 216.8125 291.25 C213.14322698 286.95616987 209.13113108 283.03613388 205.09375 279.09375 C202.9432122 276.94928716 200.94806319 274.70936789 198.96875 272.40625 C194.95327225 267.76896436 190.62202116 263.48616511 186.25 259.1875 C177.68260418 250.76385243 177.68260418 250.76385243 173.90625 246.34375 C169.16524874 240.82714716 163.92420631 235.79234254 158.75 230.6875 C146.82583995 218.92319144 146.82583995 218.92319144 141.66992188 212.80175781 C140.28134801 211.22313842 138.8088969 209.84516063 137.25 208.4375 C135.25 206.1875 135.25 206.1875 135.1875 204.1875 C136.5760917 201.57368033 138.32277622 199.42556632 140.25 197.1875 C145.19132695 198.63634586 149.3272573 200.75341853 153.75 203.3125 C154.44270996 203.7041333 155.13541992 204.0957666 155.84912109 204.49926758 C159.33975893 206.47920444 162.78919451 208.50673843 166.1953125 210.62890625 C166.81599609 211.00708496 167.43667969 211.38526367 168.07617188 211.77490234 C169.78151296 212.81782674 171.47324049 213.88291651 173.1640625 214.94921875 C176.1831576 216.47345769 176.1831576 216.47345769 179.3046875 215.6640625 C182.52849104 214.04788513 185.00981046 212.21754709 187.75 209.875 C188.70003906 209.07320312 189.65007813 208.27140625 190.62890625 207.4453125 C191.92634766 206.32769531 191.92634766 206.32769531 193.25 205.1875 C202.10531013 197.58684367 202.10531013 197.58684367 209.109375 197.8203125 C217.03333901 199.1795326 222.62990023 206.12617441 227.25 212.1875 C231.48969906 218.20167984 232.22024618 223.94035509 231.25 231.1875 C229.50705126 238.19846235 226.36938336 244.05077918 222.32421875 249.99609375 C221.06525885 252.06893259 221.06525885 252.06893259 221.4597168 254.08520508 C222.45343212 256.72866588 223.79220034 258.05510013 225.8203125 260.015625 C226.5525 260.73363281 227.2846875 261.45164062 228.0390625 262.19140625 C229.19535156 263.30322266 229.19535156 263.30322266 230.375 264.4375 C235.32559469 269.24299106 240.13420839 274.06593803 244.62890625 279.30371094 C247.08447693 282.15720241 249.63561958 284.9203157 252.1875 287.6875 C252.68056641 288.22375 253.17363281 288.76 253.68164062 289.3125 C254.87023739 290.60495474 256.05998823 291.89634799 257.25 293.1875 C257.88228516 291.38152344 257.88228516 291.38152344 258.52734375 289.5390625 C259.08066017 287.96351743 259.63404936 286.38799792 260.1875 284.8125 C260.46529297 284.0184375 260.74308594 283.224375 261.02929688 282.40625 C261.43051758 281.26542969 261.43051758 281.26542969 261.83984375 280.1015625 C262.08597412 279.3998291 262.33210449 278.6980957 262.58569336 277.97509766 C263.25 276.1875 263.25 276.1875 264.25 274.1875 C267.02734375 273.890625 267.02734375 273.890625 270.25 274.1875 C272.12890625 276.109375 272.12890625 276.109375 273.8125 278.9375 C274.82763672 280.58492187 274.82763672 280.58492187 275.86328125 282.265625 C276.23791504 282.88759766 276.61254883 283.50957031 276.99853516 284.15039062 C278.87446672 287.2039944 280.86406698 290.18016038 282.84033203 293.16943359 C293.74919606 309.72048148 303.83475975 326.74638454 313.25 344.1875 C313.71374023 345.04118164 314.17748047 345.89486328 314.65527344 346.77441406 C327.46211985 370.44612016 337.88681501 394.97436651 347.25 420.1875 C347.76777347 421.55616206 348.28593407 422.92467781 348.8046875 424.29296875 C351.9352244 432.74152951 354.35508557 441.34364487 356.67675781 450.04150391 C357.19211742 451.9708101 357.71657954 453.89767932 358.2421875 455.82421875 C359.06877655 458.87440065 359.87572991 461.92892866 360.67138672 464.98730469 C361.08839975 466.57300992 361.51281349 468.15677545 361.94189453 469.73925781 C366.01070052 484.76865844 368.7639758 499.71202753 370.81445312 515.14257812 C371.21778614 517.9622919 371.7147811 520.7467289 372.234375 523.546875 C375.67306389 544.28803997 375.65663862 565.28928806 375.625 586.25 C375.6244203 587.37335566 375.6244203 587.37335566 375.62382889 588.51940536 C375.60842435 612.28187236 374.99660057 635.67870367 371.25 659.1875 C371.12884827 659.96561035 371.00769653 660.7437207 370.88287354 661.54541016 C365.99003054 692.91361264 359.19244615 723.69042659 349.03613281 753.79785156 C348.01388427 756.90523314 347.11505935 760.03309167 346.25 763.1875 C343.3027061 761.87131775 341.36386329 760.50577782 339.203125 758.1171875 C338.61660156 757.479021 338.03007813 756.84085449 337.42578125 756.18334961 C336.79027344 755.48346924 336.15476562 754.78358887 335.5 754.0625 C328.26727844 746.22676243 320.80457819 738.64795854 313.25 731.125 C312.70396118 730.58091492 312.15792236 730.03682983 311.59533691 729.47625732 C308.4836073 726.37659049 305.36837299 723.28048544 302.25 720.1875 C301.70525075 722.85356691 301.16368806 725.52020459 300.625 728.1875 C300.4489624 729.05890625 300.2729248 729.9303125 300.09155273 730.828125 C298.95240429 736.52240864 297.86635364 742.22471037 296.82421875 747.9375 C292.3008207 772.70878161 286.22118441 796.26680732 278.25 820.1875 C277.94304199 821.12158691 277.63608398 822.05567383 277.31982422 823.01806641 C270.93281103 842.40525951 262.78957659 861.14422087 253.25 879.1875 C252.86827637 879.91372559 252.48655273 880.63995117 252.09326172 881.38818359 C241.40680009 901.59554392 229.79387445 921.53043423 215.59082031 939.48193359 C214.27503582 941.15565363 212.9888671 942.84803717 211.7109375 944.55078125 C196.33603977 964.98888612 178.74593011 984.60748292 159.25 1001.1875 C157.81333984 1002.45787109 157.81333984 1002.45787109 156.34765625 1003.75390625 C141.56913318 1016.76078041 125.57825022 1028.21838218 109.25 1039.1875 C107.45413153 1036.4936973 106.72723852 1034.83056557 105.8828125 1031.79296875 C105.63909912 1030.92720215 105.39538574 1030.06143555 105.14428711 1029.16943359 C104.89042236 1028.24727051 104.63655762 1027.32510742 104.375 1026.375 C103.837306 1024.45440849 103.29954556 1022.53383557 102.76171875 1020.61328125 C102.50181152 1019.67822754 102.2419043 1018.74317383 101.97412109 1017.77978516 C101.06749805 1014.53416026 100.12796332 1011.29846155 99.1875 1008.0625 C97.58669883 1002.45296985 96.06040494 996.82521619 94.5625 991.1875 C94.34779053 990.38554199 94.13308105 989.58358398 93.91186523 988.75732422 C93.71020752 987.99178223 93.5085498 987.22624023 93.30078125 986.4375 C93.12200439 985.76203125 92.94322754 985.0865625 92.7590332 984.390625 C92.13129258 981.67372744 91.68732708 978.94076775 91.25 976.1875 C90.74494934 976.41562378 90.23989868 976.64374756 89.71954346 976.87878418 C69.96172667 985.79836732 50.1275531 994.5382772 30.25 1003.1875 C29.37063782 1003.57025085 28.49127563 1003.95300171 27.58526611 1004.34735107 C-9.83192643 1020.61784631 -47.57485093 1036.14809301 -87.75 1044.1875 C-88.63091309 1044.36764648 -89.51182617 1044.54779297 -90.41943359 1044.73339844 C-125.89334925 1051.86558362 -163.82346269 1054.18381702 -199.75 1049.1875 C-200.75111816 1049.05327637 -201.75223633 1048.91905273 -202.78369141 1048.78076172 C-303.64453169 1035.03738783 -303.64453169 1035.03738783 -325.9375 1006.375 C-333.78057713 992.58200229 -328.55567132 975.67707299 -325.9375 961 C-325.57655227 958.93440564 -325.21652004 956.86865108 -324.85742188 954.80273438 C-323.56100365 947.36711554 -322.25702947 939.93292994 -320.89355469 932.50927734 C-319.11405729 922.76896102 -317.7264869 913.02742232 -316.625 903.1875 C-316.53939819 902.42627838 -316.45379639 901.66505676 -316.36560059 900.88076782 C-313.9923224 879.53652011 -313.67205189 858.33515513 -313.625 836.875 C-313.62213989 835.90130463 -313.61927979 834.92760925 -313.61633301 833.92440796 C-313.57639706 814.59968934 -314.22075054 795.53038526 -316.875 776.375 C-316.98126709 775.59388855 -317.08753418 774.8127771 -317.19702148 774.00799561 C-318.75572876 762.67129197 -320.72599458 751.47419345 -323.25 740.3125 C-323.52215332 739.10360107 -323.79430664 737.89470215 -324.07470703 736.64916992 C-325.54660509 730.42493397 -327.23484405 724.27890092 -329.15625 718.1796875 C-329.53072266 716.98456543 -329.90519531 715.78944336 -330.29101562 714.55810547 C-331.97135728 710.67611134 -333.91480051 708.29567923 -336.75 705.1875 C-337.09144043 705.68975098 -337.43288086 706.19200195 -337.78466797 706.70947266 C-344.98471129 717.29124487 -352.22042521 727.83698593 -359.75 738.1875 C-360.28238281 738.9196875 -360.81476563 739.651875 -361.36328125 740.40625 C-372.55859921 755.77138164 -384.24631825 770.65536177 -396.2734375 785.37451172 C-397.58503893 786.98495355 -398.88697689 788.60325487 -400.1875 790.22265625 C-404.97284363 796.16160951 -409.99445753 801.81145745 -415.1796875 807.3984375 C-417.33077429 809.7325955 -419.42925658 812.09496617 -421.5 814.5 C-424.20530154 817.62397915 -427.06869 820.52709814 -430.015625 823.421875 C-431.76202419 825.19974084 -433.38219239 827.04235395 -435 828.9375 C-441.27848443 836.20361119 -448.16308582 842.9597207 -455.46875 849.1875 C-457.94344693 851.35709731 -460.34029247 853.59726475 -462.73901367 855.85009766 C-468.46737597 861.22949693 -474.26276906 866.39874242 -480.40234375 871.30859375 C-482.41156019 872.91663553 -484.36665043 874.5667229 -486.3125 876.25 C-488.75 878.1875 -488.75 878.1875 -490.75 878.1875 C-507.20550036 839.04736365 -519.36333515 800.05887094 -526.75 758.1875 C-527.06928467 756.39070801 -527.06928467 756.39070801 -527.39501953 754.55761719 C-539.53836998 684.20214466 -533.39952052 612.61036052 -525.75 542.1875 C-526.69431885 542.50928223 -527.6386377 542.83106445 -528.61157227 543.16259766 C-536.581505 545.86035014 -544.56592829 548.35357223 -552.6875 550.5625 C-561.04305516 552.8664331 -569.37485082 555.23335496 -577.6875 557.6875 C-590.31613458 561.40603109 -603.02503273 564.81575539 -615.75 568.1875 C-614.02315805 547.09781464 -610.49633034 526.49775456 -605.42431641 505.96582031 C-604.84628451 503.58421172 -604.30488678 501.20116374 -603.79296875 498.8046875 C-596.83638199 466.49265083 -584.54618718 435.12413912 -570.75 405.1875 C-570.27836426 404.15915039 -569.80672852 403.13080078 -569.32080078 402.07128906 C-561.90501277 385.99412183 -553.66240213 370.4831453 -544.75 355.1875 C-544.28803223 354.39359863 -543.82606445 353.59969727 -543.35009766 352.78173828 C-532.13240752 333.65559768 -519.41136182 315.377246 -506.75 297.1875 C-507.78809814 297.04417236 -508.82619629 296.90084473 -509.89575195 296.75317383 C-513.09156341 296.28413632 -516.24758647 295.74926366 -519.41796875 295.13671875 C-520.46742676 294.93457764 -521.51688477 294.73243652 -522.59814453 294.52416992 C-523.70013184 294.30994385 -524.80211914 294.09571777 -525.9375 293.875 C-527.07558105 293.65497314 -528.21366211 293.43494629 -529.38623047 293.20825195 C-539.51620088 291.24471162 -549.63586038 289.23087584 -559.75 287.1875 C-557.64855993 280.38358977 -554.30600026 274.36807917 -550.9375 268.125 C-550.60397522 267.50456818 -550.27045044 266.88413635 -549.92681885 266.24490356 C-534.30190117 237.23910702 -515.88277982 208.9877124 -494.24609375 184.08203125 C-491.92838314 181.39435744 -489.70919807 178.65192495 -487.5 175.875 C-477.42226228 163.55972262 -466.03755469 152.38166416 -454.8125 141.125 C-454.27447754 140.58429871 -453.73645508 140.04359741 -453.18212891 139.48651123 C-447.21833445 133.50019558 -441.19587241 127.65918955 -434.75 122.1875 C-433.55814469 121.14261909 -432.36802553 120.09575437 -431.1796875 119.046875 C-423.9108457 112.67640667 -416.52125819 106.53240955 -408.87109375 100.625 C-406.68103279 98.91461447 -404.57402312 97.18579965 -402.47265625 95.375 C-399.75 93.1875 -399.75 93.1875 -397.75 93.1875 C-397.97719727 94.49062134 -397.97719727 94.49062134 -398.20898438 95.82006836 C-404.54605083 132.83097378 -407.3759428 170.34475847 -384.94921875 202.79296875 C-377.9454113 211.91386914 -369.48217123 220.99430012 -359.75 227.1875 C-360.11351562 225.75083984 -360.11351562 225.75083984 -360.484375 224.28515625 C-362.30220246 217.0752038 -364.09174049 209.85878225 -365.8125 202.625 C-366.11285156 201.36558594 -366.41320312 200.10617187 -366.72265625 198.80859375 C-366.87790771 198.11016357 -367.03315918 197.4117334 -367.19311523 196.69213867 C-367.6201329 194.77158882 -368.06909731 192.85590743 -368.52758789 190.94262695 C-370.57641407 181.79970218 -371.19066898 173.11968498 -371.08618164 163.76147461 C-371.06240592 161.4910154 -371.06567582 159.22172598 -371.07226562 156.95117188 C-371.03362775 135.87593003 -365.98877048 116.13725279 -351.09375 100.47265625 C-338.5734946 88.26540723 -324.21817479 83.75326925 -307.02172852 83.82397461 C-288.69807694 84.18009637 -269.88491773 90.75963919 -253.75 99.1875 C-258.19168079 89.66623745 -262.56298853 80.98095588 -269.75 73.1875 C-270.56082031 72.28515625 -271.37164063 71.3828125 -272.20703125 70.453125 C-282.90743407 59.11038467 -298.10221328 48.99831522 -313.1484375 44.46484375 C-314.75 43.1875 -314.75 43.1875 -315.12515259 41.3127594 C-315.33343506 39.27100627 -315.54171753 37.22925313 -315.75 35.1875 C-295.02703381 28.03469121 -274.27724258 20.96740921 -253.44122314 14.14993286 C-251.51301822 13.51898183 -249.58522743 12.88676348 -247.65789795 12.25314331 C-229.82314121 6.39543289 -211.8633636 1.02461746 -193.625 -3.4375 C-192.5628125 -3.71078125 -191.500625 -3.9840625 -190.40625 -4.265625 C-168.03357867 -9.74360173 -144.95967592 -11.64073202 -122.0625 -13.5 C-119.52663003 -13.7134494 -116.99082237 -13.92764035 -114.45507812 -14.14257812 C-103.25681846 -15.08346476 -92.06376474 -15.99350925 -80.84057617 -16.57739258 C-77.74962093 -16.76594748 -77.74962093 -16.76594748 -74.72412109 -17.31933594 C-48.1188719 -21.73097634 -21.94127172 -15.28387731 0 0 Z " fill="#C3DEAE" transform="translate(1095.75,502.8125)"/>
<path d="M0 0 C1.80247523 -0.0070206 3.6049502 -0.01410743 5.40742493 -0.02125549 C11.14010981 -0.04066998 16.87275432 -0.04568986 22.60546875 -0.046875 C24.07008671 -0.04753778 24.07008671 -0.04753778 25.56429291 -0.04821396 C53.88709534 -0.05493822 82.0715959 0.08800553 110.27716064 2.94989014 C112.93375176 3.21729586 115.59141772 3.47113786 118.24951172 3.72314453 C158.0999938 7.53873567 197.68298949 13.64266531 236.79296875 22.203125 C237.90233795 22.44582123 237.90233795 22.44582123 239.03411865 22.69342041 C276.97969324 31.03678618 314.20686609 41.81183131 350.90393066 54.54870605 C352.65825168 55.156455 354.41449883 55.75863617 356.17089844 56.36035156 C387.44016274 67.09721089 417.90309133 80.10929894 447.79296875 94.203125 C448.84638458 94.69969604 448.84638458 94.69969604 449.92108154 95.20629883 C466.90746623 103.22715305 483.72139615 111.46988643 500.09570312 120.69042969 C502.98034604 122.30821096 505.87773782 123.90139282 508.77734375 125.4921875 C552.96722971 149.83251627 595.02139601 178.18630098 634.79296875 209.203125 C635.94268366 210.09378185 637.09242403 210.98440584 638.2421875 211.875 C645.20186036 217.28520061 651.99754109 222.85213126 658.69921875 228.578125 C661.58848195 231.04228464 664.52815333 233.439735 667.48046875 235.828125 C671.93200683 239.45146995 676.2167933 243.22276372 680.4609375 247.0859375 C682.55120764 248.98363669 684.6628299 250.85045915 686.79296875 252.703125 C702.60556951 266.50777645 717.74953391 280.98788359 732.5690918 295.84887695 C734.88149598 298.16671338 737.19929773 300.47905804 739.51757812 302.79101562 C741.01724832 304.29134564 742.51660881 305.7919853 744.015625 307.29296875 C744.69488541 307.97020493 745.37414581 308.6474411 746.07398987 309.34519958 C749.94652413 313.23655547 753.64327786 317.22960994 757.22157288 321.39361572 C759.78588443 324.34649706 762.48468257 327.17130878 765.16796875 330.015625 C769.89169984 335.05878318 774.36131166 340.23003476 778.68359375 345.625 C780.81282021 348.2273879 783.02746232 350.71888002 785.29296875 353.203125 C789.9976489 358.37827316 794.39733218 363.7651534 798.79296875 369.203125 C799.80379642 370.43432587 800.81556924 371.66475118 801.828125 372.89453125 C814.12471353 387.86267794 825.53085758 403.44780449 836.79296875 419.203125 C837.3142334 419.93208984 837.83549805 420.66105469 838.37255859 421.41210938 C844.93497749 430.60649245 851.36165072 439.8778087 857.55859375 449.32275391 C858.37654623 450.5687725 859.19683292 451.81326215 860.01953125 453.05615234 C874.0189887 474.21492353 886.96812921 496.04133031 899.18164062 518.27294922 C900.73607196 521.09965904 902.30235822 523.91949107 903.87109375 526.73828125 C945.87202567 602.53000199 976.2102501 685.04238576 1018.98046875 906.265625 C1019.05946411 907.04892181 1019.13845947 907.83221863 1019.21984863 908.63925171 C1022.22900566 938.85082151 1023.18137515 969.16399221 1023.11102676 999.50886154 C1023.10534519 1002.00746475 1023.10255043 1004.50606105 1023.09994507 1007.00466919 C1023.05790231 1034.81976727 1022.32333903 1062.48888626 1019.79296875 1090.203125 C1019.70575562 1091.16361755 1019.61854248 1092.12411011 1019.52868652 1093.1137085 C1011.56323237 1179.78765007 992.49902051 1264.66752912 927.79296875 1429.203125 C927.28378906 1430.28319824 926.77460937 1431.36327148 926.25 1432.47607422 C916.12415343 1453.9544525 905.32916803 1474.89624687 893.2421875 1495.33984375 C890.47320467 1500.02492249 887.77446321 1504.74510797 885.10302734 1509.48632812 C879.36513426 1519.65626188 873.2594618 1529.4837219 866.79296875 1539.203125 C865.74652183 1540.78643598 864.70009478 1542.36976013 863.65405273 1543.95333862 C854.90992012 1557.18400808 846.10305816 1570.3613066 836.79296875 1583.203125 C836.2525293 1583.94933105 835.71208984 1584.69553711 835.15527344 1585.46435547 C823.82243925 1601.06879639 812.08671655 1616.34331979 799.79296875 1631.203125 C799.10332031 1632.05519531 798.41367188 1632.90726563 797.703125 1633.78515625 C788.43028774 1645.23786483 778.69210979 1656.29010546 768.79296875 1667.203125 C767.35522174 1668.80707029 765.91772798 1670.41124261 764.48046875 1672.015625 C762.91872663 1673.7454762 761.35612013 1675.47454716 759.79296875 1677.203125 C759.01058838 1678.07235596 758.22820801 1678.94158691 757.42211914 1679.8371582 C748.64654074 1689.47247068 739.46246122 1698.68591211 730.23730469 1707.88916016 C727.5307355 1710.59033386 724.82959979 1713.29685929 722.12890625 1716.00390625 C720.38703955 1717.74511265 718.64486295 1719.48600909 716.90234375 1721.2265625 C716.10632751 1722.02460297 715.31031128 1722.82264343 714.49017334 1723.64486694 C710.29771733 1727.81996851 706.03109977 1731.84337894 701.53895569 1735.69525146 C698.77989316 1738.07803983 696.13879235 1740.5843463 693.48046875 1743.078125 C688.60711326 1747.61661024 683.58992898 1751.89661297 678.39453125 1756.06640625 C675.84310146 1758.16194994 673.40970102 1760.34275655 670.98046875 1762.578125 C666.60788439 1766.55820966 662.05127584 1770.21659997 657.38305664 1773.83764648 C653.51739093 1776.83841282 649.70389739 1779.89273653 645.92089844 1782.99707031 C637.39681806 1789.99172037 628.68408349 1796.68255351 619.79296875 1803.203125 C619.10541504 1803.70779297 618.41786133 1804.21246094 617.70947266 1804.73242188 C599.56500335 1818.01519516 581.19581705 1830.94190248 562.07275391 1842.78076172 C559.80435078 1844.19602373 557.55259343 1845.63446789 555.3046875 1847.08203125 C474.21126141 1899.19795688 383.63723089 1938.46878679 98.91796875 1997.953125 C98.18894348 1998.01238159 97.45991821 1998.07163818 96.70880127 1998.13269043 C78.53943974 1999.58474687 60.39778814 2000.36246016 42.171875 2000.40625 C40.34974647 2000.41327345 38.52761817 2000.42036026 36.70549011 2000.42750549 C30.92214599 2000.44688233 25.13884207 2000.45193897 19.35546875 2000.453125 C17.87742516 2000.45378778 17.87742516 2000.45378778 16.36952209 2000.45446396 C-12.06856234 2000.46115151 -40.38929273 2000.3711883 -68.70758057 1997.45959473 C-71.35690866 1997.18774601 -74.00719713 1996.92697162 -76.65771484 1996.66699219 C-156.06730294 1988.7866744 -234.36593867 1971.67020308 -474.14990234 1869.02294922 C-477.36402517 1867.10967086 -480.590713 1865.21905688 -483.8203125 1863.33203125 C-506.24575458 1850.19885494 -528.07652489 1836.33509325 -549.20703125 1821.203125 C-550.70699308 1820.13666507 -552.20699255 1819.07025806 -553.70703125 1818.00390625 C-565.39924811 1809.65672365 -576.83264545 1800.97691684 -588.20703125 1792.203125 C-588.89345703 1791.67412598 -589.57988281 1791.14512695 -590.28710938 1790.60009766 C-597.72341605 1784.85507406 -604.974095 1778.92938866 -612.1171875 1772.82421875 C-614.98280819 1770.38009166 -617.90108647 1768.00616766 -620.83203125 1765.640625 C-625.59510343 1761.76499567 -630.14067374 1757.69078211 -634.66015625 1753.53515625 C-636.79644874 1751.57907248 -638.95483782 1749.66124803 -641.14453125 1747.765625 C-646.59703845 1743.01951549 -651.89568485 1738.10558028 -657.20703125 1733.203125 C-657.7602002 1732.69352234 -658.31336914 1732.18391968 -658.88330078 1731.65887451 C-668.03730425 1723.21587124 -676.98043611 1714.58909723 -685.77148438 1705.76904297 C-687.73061781 1703.80447299 -689.69514769 1701.84541052 -691.66015625 1699.88671875 C-697.18038836 1694.36940123 -702.67395838 1688.8787282 -707.72949219 1682.92578125 C-710.40120281 1679.81084567 -713.25958816 1676.86837378 -716.08203125 1673.890625 C-720.97552973 1668.69209069 -725.61813245 1663.38322147 -730.07421875 1657.80078125 C-732.318324 1655.06757614 -734.67570878 1652.48175907 -737.08203125 1649.890625 C-741.24509807 1645.36248924 -745.06917431 1640.66799229 -748.82641602 1635.80615234 C-751.89343704 1631.84620114 -755.0427068 1627.97054258 -758.25512695 1624.12768555 C-765.70895752 1615.20516054 -772.68123105 1605.99709267 -779.49121094 1596.57617188 C-781.18479197 1594.2338828 -782.88643241 1591.89764659 -784.58984375 1589.5625 C-812.28320186 1551.52127825 -836.97576461 1511.66183006 -859.20703125 1470.203125 C-859.90965088 1468.89480713 -859.90965088 1468.89480713 -860.62646484 1467.56005859 C-901.24383364 1391.61955573 -931.58660428 1310.35331204 -975.06628418 1062.38131714 C-975.15807511 1060.96076693 -975.25336802 1059.54043739 -975.35266113 1058.12039185 C-976.65253919 1039.24716236 -976.4527824 1020.2987333 -976.45703125 1001.390625 C-976.45747311 1000.48982082 -976.45791496 999.58901665 -976.45837021 998.66091537 C-976.46580149 969.73214218 -975.9378144 941.02279286 -973.20703125 912.203125 C-973.03362588 910.31657503 -972.86028752 908.4300189 -972.68701172 906.54345703 C-966.04363933 835.30180194 -951.70297847 765.42003122 -930.20703125 697.203125 C-929.96339844 696.42990906 -929.71976563 695.65669312 -929.46875 694.86004639 C-918.1789237 659.15160803 -904.74012046 624.27804271 -889.20703125 590.203125 C-888.91227905 589.55623718 -888.61752686 588.90934937 -888.31384277 588.24285889 C-872.95782144 554.59342305 -855.94155435 522.09990235 -837.20703125 490.203125 C-836.65354004 489.25920898 -836.10004883 488.31529297 -835.52978516 487.34277344 C-821.32637008 463.24547147 -805.66811771 439.81878491 -789.20703125 417.203125 C-788.67239258 416.46562012 -788.13775391 415.72811523 -787.58691406 414.96826172 C-772.66025335 394.41330691 -757.06210593 374.34510857 -740.43603516 355.13305664 C-737.53339393 351.77475153 -734.72030777 348.36565456 -731.95703125 344.890625 C-726.64944996 338.3433167 -720.79700545 332.31145271 -714.9921875 326.20703125 C-712.14929415 323.21418308 -709.37145264 320.17760491 -706.64453125 317.078125 C-702.15287341 312.02175196 -697.34751817 307.28856544 -692.52124023 302.55419922 C-689.77591884 299.84669217 -687.19092779 297.18332903 -684.75390625 294.1875 C-682.14202599 291.12695319 -679.36338727 288.65519721 -676.3125 286.05078125 C-672.77075637 282.94272051 -669.50510338 279.5656126 -666.20703125 276.203125 C-661.65108331 271.5581937 -657.03119846 267.09327296 -652.10009766 262.84667969 C-649.29664665 260.41273176 -646.60179779 257.86781717 -643.89453125 255.328125 C-639.02117576 250.78963976 -634.00399148 246.50963703 -628.80859375 242.33984375 C-626.25716396 240.24430006 -623.82376352 238.06349345 -621.39453125 235.828125 C-617.02002299 231.84628913 -612.4617405 228.18570417 -607.79052734 224.56420898 C-603.97388557 221.60267016 -600.21491408 218.58352671 -596.48730469 215.51074219 C-587.73000785 208.30064023 -578.69192628 201.53369699 -569.50830078 194.87792969 C-567.41729269 193.35614786 -565.33936482 191.81861822 -563.265625 190.2734375 C-540.49237839 173.41733732 -516.55356571 157.68466816 -492.20703125 143.203125 C-491.27068848 142.64512207 -490.3343457 142.08711914 -489.36962891 141.51220703 C-475.16229525 133.07420749 -460.78320652 124.98532027 -446.20703125 117.203125 C-445.33916992 116.7376123 -444.47130859 116.27209961 -443.57714844 115.79248047 C-396.22342007 90.46149125 -347.07415362 69.31938978 -296.17626953 52.20751953 C-293.3247071 51.24293083 -290.4821202 50.25551245 -287.640625 49.26171875 C-209.5551344 22.21871009 -126.24557416 7.29256755 -37.20703125 1.203125 C-36.5229548 1.15793889 -35.83887835 1.11275278 -35.1340723 1.0661974 C-23.41671573 0.30998185 -11.73997349 0.02839866 0 0 Z M-41.20703125 72.203125 C-42.28999481 72.27950195 -42.28999481 72.27950195 -43.39483643 72.35742188 C-119.30399334 77.76925945 -193.99357161 93.36020416 -266.20703125 117.203125 C-266.85138123 117.41539734 -267.4957312 117.62766968 -268.15960693 117.84637451 C-319.37825781 134.74883866 -369.6109924 156.62769869 -416.87939453 182.64599609 C-426.57694102 187.98163564 -436.38333684 193.10440579 -446.20703125 198.203125 C-445.92730469 197.11902344 -445.64757812 196.03492188 -445.359375 194.91796875 C-441.62563777 180.28914188 -438.30429623 165.57340295 -435.03027344 150.83642578 C-434.48138154 148.41394382 -433.91428708 145.9955146 -433.32910156 143.58154297 C-433.05420898 142.44475098 -432.77931641 141.30795898 -432.49609375 140.13671875 C-432.24811035 139.13568115 -432.00012695 138.13464355 -431.74462891 137.10327148 C-431.1830115 134.07354706 -431.11282538 131.27737645 -431.20703125 128.203125 C-445.84675621 132.49407887 -458.16140284 140.51459574 -470.64453125 149.015625 C-472.04309737 149.95975871 -473.44218486 150.90312058 -474.84179688 151.84570312 C-477.60912475 153.71051948 -480.3732335 155.57996989 -483.13525391 157.45263672 C-487.13917548 160.16342429 -491.16622453 162.83855157 -495.1953125 165.51171875 C-500.52693881 169.05566569 -505.78933812 172.67384276 -510.95703125 176.453125 C-511.69671143 176.99122803 -512.4363916 177.52933105 -513.19848633 178.08374023 C-514.74952458 179.21358927 -516.29941066 180.34502166 -517.84814453 181.47802734 C-520.24458029 183.23058531 -522.64567383 184.97663514 -525.046875 186.72265625 C-534.42783405 193.5662587 -543.61731185 200.59221227 -552.62451172 207.92041016 C-554.84564036 209.72075108 -557.08999495 211.49142934 -559.33203125 213.265625 C-563.73333229 216.78374623 -568.03230903 220.41494775 -572.32080078 224.06884766 C-575.74185611 226.97980727 -579.20507568 229.82682664 -582.70703125 232.640625 C-587.46194175 236.50702667 -591.9736477 240.58841368 -596.44140625 244.77905273 C-599.30980946 247.46818074 -602.21472524 250.10089755 -605.1796875 252.68359375 C-617.19849007 263.15383905 -628.49226214 274.3854374 -639.76953125 285.640625 C-640.38171509 286.25022064 -640.99389893 286.85981628 -641.62463379 287.48788452 C-650.40452039 296.23419423 -650.40452039 296.23419423 -658.69213867 305.44311523 C-661.38082434 308.56684367 -664.24751859 311.52481046 -667.08203125 314.515625 C-671.89636452 319.63469499 -676.48793136 324.84583386 -680.875 330.33984375 C-683.69706722 333.80479395 -686.63625426 337.1559255 -689.58203125 340.515625 C-694.23924353 345.84652631 -698.7151277 351.27733022 -703.04907227 356.87353516 C-705.93872864 360.60269414 -708.88963137 364.27104097 -711.89038086 367.91137695 C-772.68912412 441.77551776 -819.64241738 529.45090431 -854.20703125 628.203125 C-854.43628296 628.87025513 -854.66553467 629.53738525 -854.9017334 630.22473145 C-880.8987139 706.11073037 -894.0209154 785.07219982 -900.33203125 864.828125 C-900.4126178 865.82630249 -900.49320435 866.82447998 -900.57623291 867.85290527 C-903.38434537 902.99086933 -904.55397984 938.1409036 -904.46777344 973.38452148 C-904.45633856 978.09038137 -904.46320688 982.79601585 -904.47465229 987.50186825 C-904.52537273 1012.1302383 -903.84664233 1036.62862808 -902.20703125 1061.203125 C-902.13377625 1062.30260468 -902.06052124 1063.40208435 -901.98504639 1064.53488159 C-901.57183082 1070.53601363 -901.07906416 1076.52646192 -900.51953125 1082.515625 C-900.4387735 1083.39582306 -900.35801575 1084.27602112 -900.27481079 1085.18289185 C-895.78202377 1133.50227675 -887.43729571 1181.25765741 -875.20703125 1228.203125 C-874.91762665 1229.31530396 -874.91762665 1229.31530396 -874.62237549 1230.44995117 C-859.72855732 1287.47975195 -839.54375696 1342.98242633 -814.20703125 1396.203125 C-813.6661084 1397.35055176 -813.12518555 1398.49797852 -812.56787109 1399.68017578 C-799.52529087 1427.3340573 -785.0653748 1454.06176654 -769.20703125 1480.203125 C-768.65337891 1481.12109863 -768.09972656 1482.03907227 -767.52929688 1482.98486328 C-741.99966991 1525.24377532 -712.64805911 1564.93828618 -680.6484375 1602.50732422 C-679.20503509 1604.20547346 -677.76821702 1605.90902693 -676.33203125 1607.61328125 C-669.54369305 1615.63803027 -662.48223229 1623.36264067 -655.26464844 1631.00195312 C-653.19738781 1633.21344123 -651.15404199 1635.44592411 -649.11126709 1637.68000793 C-642.78082386 1644.58933994 -636.27129136 1651.29449952 -629.6328125 1657.90771484 C-627.94021778 1659.59488458 -626.25312528 1661.28742696 -624.56640625 1662.98046875 C-619.52331367 1668.02664889 -614.4570136 1672.99443748 -609.02685547 1677.62841797 C-605.71093264 1680.49770992 -602.57038707 1683.55585115 -599.39453125 1686.578125 C-593.99753894 1691.67952896 -588.52793003 1696.53191566 -582.71875 1701.16015625 C-580.11101585 1703.28122151 -577.62651748 1705.49912905 -575.14453125 1707.765625 C-571.21673407 1711.33634971 -567.18464359 1714.70379702 -563.015625 1717.98828125 C-560.93421318 1719.62967277 -558.86539597 1721.2822252 -556.8046875 1722.94921875 C-506.61875767 1763.49687985 -451.72693806 1798.08799801 -394.20703125 1827.203125 C-392.68095696 1827.9804047 -391.15491006 1828.75773818 -389.62890625 1829.53515625 C-386.51839028 1831.11236305 -383.39581559 1832.66301695 -380.26318359 1834.19580078 C-378.78000669 1834.9224201 -377.29879868 1835.65306315 -375.81884766 1836.38623047 C-298.73313531 1874.50075202 -214.78161731 1899.81809856 -71.76953125 1922.390625 C-71.04254028 1922.46962036 -70.31554932 1922.54861572 -69.56652832 1922.63000488 C-38.52685825 1925.95927547 -7.39580993 1926.61231237 23.79296875 1926.578125 C24.70439762 1926.5780331 25.61582649 1926.57794121 26.55487442 1926.57784653 C56.2100396 1926.57399762 85.57352908 1925.77965101 115.07562256 1922.50384521 C117.81600465 1922.20057569 120.55743001 1921.90895538 123.29931641 1921.61962891 C146.27368406 1919.17273671 169.04080815 1915.78515354 191.75634766 1911.57879639 C193.7638818 1911.20849032 195.77236641 1910.8438645 197.78125 1910.48095703 C226.19067643 1905.32236602 254.19717796 1898.72009639 281.79296875 1890.203125 C283.1127629 1889.79807909 284.43258883 1889.39313673 285.75244141 1888.98828125 C338.13512094 1872.8909562 388.65533165 1853.46205224 437.79296875 1829.203125 C439.31379137 1828.45700942 440.83462309 1827.71091237 442.35546875 1826.96484375 C458.43112849 1819.03684758 474.34312952 1810.74056783 489.90625 1801.84765625 C491.51555638 1800.93085248 493.13637075 1800.031424 494.79296875 1799.203125 C494.5825293 1800.0180542 494.37208984 1800.8329834 494.15527344 1801.67260742 C490.86863638 1814.5981694 487.90185997 1827.59583281 484.93701172 1840.59838867 C484.18496755 1843.8964082 483.42835438 1847.19336225 482.67068863 1850.49009418 C481.94290863 1853.66069923 481.21978034 1856.8323648 480.49609375 1860.00390625 C480.22428284 1861.18503494 479.95247192 1862.36616364 479.67242432 1863.58308411 C479.3013858 1865.21705391 479.3013858 1865.21705391 478.92285156 1866.8840332 C478.70397278 1867.84171097 478.48509399 1868.79938873 478.25958252 1869.78608704 C477.69819275 1872.28378263 477.69819275 1872.28378263 477.79296875 1875.203125 C490.80396809 1873.57925605 502.17288659 1866.04602057 512.671875 1858.67333984 C515.85009345 1856.47038962 519.08122048 1854.34937648 522.30834961 1852.21899414 C544.74199683 1837.39372503 566.59297747 1821.74554244 587.79296875 1805.203125 C588.33695313 1804.77999023 588.8809375 1804.35685547 589.44140625 1803.92089844 C606.60991084 1790.5599251 623.46033497 1776.8298576 639.57421875 1762.20703125 C641.58605268 1760.39000518 643.61957309 1758.60368108 645.66796875 1756.828125 C650.55055829 1752.56801699 655.32173689 1748.18746057 660.07861328 1743.78808594 C661.23713459 1742.71700642 662.39700182 1741.64738115 663.55810547 1740.57910156 C672.16665501 1732.65011374 680.56767719 1724.52952409 688.85546875 1716.265625 C689.73581787 1715.38986816 690.61616699 1714.51411133 691.52319336 1713.61181641 C695.93896239 1709.18549848 700.21936061 1704.70596628 704.26928711 1699.94116211 C705.87221836 1698.11272635 707.55710179 1696.40516481 709.29296875 1694.703125 C712.328918 1691.71440163 715.13805534 1688.58606021 717.91796875 1685.359375 C719.96655969 1683.00349542 722.06499877 1680.6980504 724.16796875 1678.390625 C728.04208756 1674.09838882 731.71314423 1669.67533826 735.34765625 1665.1796875 C737.58918221 1662.45118465 739.87617916 1659.77370403 742.18920898 1657.10620117 C747.80205239 1650.63093767 753.14946516 1644.00358858 758.30859375 1637.16015625 C760.01979026 1634.90407874 761.74958235 1632.66288036 763.48046875 1630.421875 C797.49186464 1586.28339721 826.3849175 1538.74331172 851.79296875 1489.203125 C852.31793945 1488.18186523 852.84291016 1487.16060547 853.38378906 1486.10839844 C873.17708995 1447.4735135 889.80427577 1407.29139376 903.79296875 1366.203125 C904.01448608 1365.55363892 904.23600342 1364.90415283 904.4642334 1364.23498535 C906.14925053 1359.29118923 907.81928296 1354.34247623 909.48046875 1349.390625 C909.80587143 1348.42299728 909.80587143 1348.42299728 910.1378479 1347.43582153 C916.78747458 1327.61147706 922.68838979 1307.62149594 927.73046875 1287.328125 C928.11258011 1285.79921127 928.11258011 1285.79921127 928.50241089 1284.2394104 C932.1656248 1269.52826826 935.47968547 1254.7758549 938.35546875 1239.890625 C938.51336884 1239.07410461 938.67126892 1238.25758423 938.83395386 1237.4163208 C940.95392476 1226.36303939 942.77481164 1215.27232234 944.48849487 1204.14953613 C944.90021015 1201.51756253 945.34500832 1198.89164722 945.79296875 1196.265625 C948.35650953 1180.91217298 950.4099793 1165.57685168 951.85546875 1150.078125 C952.0269945 1148.27342751 952.19862679 1146.46874014 952.37036133 1144.6640625 C955.58081908 1110.68581077 957.03437051 1076.88912165 957.04296875 1042.765625 C957.04341061 1041.9573312 957.04385246 1041.1490374 957.04430771 1040.31624985 C957.05252105 1011.52465391 956.32407889 982.89880081 953.79296875 954.203125 C953.6656839 952.7568573 953.6656839 952.7568573 953.53582764 951.28137207 C948.61577006 896.17261482 940.25231664 841.38223695 927.56591797 787.52001953 C926.82840243 784.35517867 926.11873451 781.18573206 925.421875 778.01171875 C923.32459167 768.47554576 921.0079289 759.0922041 918.15625 749.75390625 C916.83902918 745.4214771 915.64818656 741.05857071 914.45751953 736.68994141 C895.91559441 668.97206818 868.35162867 602.56872507 833.25097656 541.75634766 C831.4891313 538.67105332 829.79123071 535.55399303 828.09716797 532.43115234 C818.54300435 514.88551439 807.5420427 498.19835474 796.48046875 481.578125 C796.07048645 480.96126831 795.66050415 480.34441162 795.23809814 479.7088623 C776.24597742 451.17635833 755.46093477 423.99504276 733.24316406 397.90771484 C731.77493836 396.18193171 730.31123342 394.45238228 728.84765625 392.72265625 C722.59155268 385.35114718 716.16977805 378.1725376 709.5612793 371.11499023 C708.23367792 369.67961175 706.91966451 368.23164615 705.61254883 366.77758789 C697.69321715 358.0073501 689.38727566 349.64491848 681.02172852 341.30151367 C678.59600245 338.88117974 676.17571077 336.4555028 673.75585938 334.02929688 C672.191727 332.46582488 670.62728469 330.90266288 669.0625 329.33984375 C668.35084183 328.62616135 667.63918365 327.91247894 666.90596008 327.1771698 C662.91818772 323.20775764 658.83654322 319.4075673 654.56848145 315.74052429 C651.80199754 313.3450526 649.14910133 310.83128383 646.48046875 308.328125 C641.7088598 303.88847207 636.81128885 299.68653359 631.7265625 295.60546875 C628.24392578 292.75350925 624.86535582 289.79470375 621.48046875 286.828125 C615.05366211 281.21915768 608.45717311 275.89135871 601.703125 270.68359375 C599.62994935 269.07677663 597.57024441 267.45366309 595.51171875 265.828125 C586.16512703 258.46651519 576.64938631 251.43992656 566.87548828 244.65771484 C564.82512898 243.22558815 562.78946877 241.77491744 560.7578125 240.31640625 C484.10636657 185.38118158 397.93803466 143.77236223 -41.20703125 72.203125 Z " fill="#C3DEAE" transform="translate(976.20703125,-0.203125)"/>
<path d="M0 0 C0.66 0 1.32 0 2 0 C3.06225586 1.38256836 3.06225586 1.38256836 4.21484375 3.33984375 C4.64772705 4.06397461 5.08061035 4.78810547 5.52661133 5.53417969 C5.99220459 6.32727539 6.45779785 7.12037109 6.9375 7.9375 C7.93824065 9.6091899 8.94089008 11.27973841 9.9453125 12.94921875 C10.45610352 13.79919434 10.96689453 14.64916992 11.49316406 15.52490234 C13.69737689 19.1454969 15.99494535 22.70124444 18.3125 26.25 C24.95679806 36.44808537 31.48075036 46.72165187 38 57 C38.78358887 58.23435791 38.78358887 58.23435791 39.58300781 59.49365234 C51.64798086 78.50665328 63.47461764 97.65483272 75 117 C78.3219339 114.3026637 81.40743518 111.7564931 84.125 108.4375 C87.24639262 104.76812956 90.57336849 101.3796045 94 98 C97.98610363 94.0636229 101.79141814 90.06092543 105.42578125 85.79296875 C107.55617829 83.36653639 109.85469874 81.13314189 112.15844727 78.87280273 C113.93087528 77.07029772 115.58719127 75.2138306 117.234375 73.296875 C120.963721 69.00773288 124.83770991 64.87193662 128.75 60.75 C135.23261102 53.89110935 141.64160097 46.97403827 148 40 C148.93314024 38.98265676 149.86674345 37.96573799 150.80078125 36.94921875 C155.83398686 31.47147264 160.84385069 25.97399495 165.8125 20.4375 C168.07862316 17.91239133 170.35190615 15.39383372 172.625 12.875 C176.4573247 8.61835815 180.24377959 4.32388073 184 0 C184.66 0.33 185.32 0.66 186 1 C186.03440186 1.83805176 186.06880371 2.67610352 186.10424805 3.53955078 C187.14477703 27.69595541 189.14348298 51.71212663 191.46611023 75.7772522 C192.42909826 85.76839867 193.34371123 95.76098947 194.15625 105.765625 C194.24201294 106.80644226 194.32777588 107.84725952 194.4161377 108.9196167 C194.79002796 113.62578268 195.10845304 118.27425903 195 123 C195.66 123 196.32 123 197 123 C197.39505737 122.12166504 197.39505737 122.12166504 197.7980957 121.22558594 C199.05322783 118.90143714 200.40685954 117.29392262 202.23046875 115.390625 C202.86919922 114.71773438 203.50792969 114.04484375 204.16601562 113.3515625 C204.83310547 112.65804687 205.50019531 111.96453125 206.1875 111.25 C210.68764832 106.53939699 215.10363857 101.7891697 219.37182617 96.86669922 C221.71839013 94.17636663 224.13378868 91.55355932 226.5625 88.9375 C227.06716797 88.39222656 227.57183594 87.84695313 228.09179688 87.28515625 C232.63478959 82.38160856 237.19812964 77.49701586 241.76318359 72.61401367 C246.25790464 67.80377495 250.72860906 62.97190347 255.18164062 58.12304688 C257.40982473 55.70110763 259.64516717 53.29970296 262 51 C263.9375 51.6875 263.9375 51.6875 266 53 C267.63440184 57.61007613 266.45247357 61.83174708 265.41015625 66.4453125 C265.14106194 67.69038826 265.14106194 67.69038826 264.86653137 68.96061707 C264.27502682 71.68433356 263.66908808 74.40460639 263.0625 77.125 C262.64598757 79.02483924 262.23014199 80.9248248 261.81494141 82.82495117 C260.55890966 88.55348417 259.28197433 94.27722465 258 100 C257.81358948 100.83416443 257.62717896 101.66832886 257.43511963 102.527771 C253.58454033 119.75252976 249.56577324 136.93126314 245.37597656 154.07666016 C243.4813541 161.87069923 241.72577174 169.68136225 240.15332031 177.546875 C239.09398775 182.81202451 239.09398775 182.81202451 238 185 C231.60522929 183.87767015 225.23158618 182.66185079 218.8671875 181.37890625 C218.14049866 181.23246674 217.41380981 181.08602722 216.6651001 180.93515015 C213.65369449 180.32738748 210.64256137 179.71830126 207.63183594 179.10717773 C169.59157595 171.39350455 131.7342119 167.60810597 92.89672852 167.73925781 C89.48559786 167.75068573 86.07477841 167.74383602 82.66365814 167.73237514 C65.35958098 167.68317896 48.22891072 168.33954106 31 170 C30.26427765 170.06914612 29.5285553 170.13829224 28.77053833 170.20953369 C24.96583098 170.57126977 21.16974901 170.98365885 17.375 171.4375 C16.29710205 171.56455322 15.2192041 171.69160645 14.10864258 171.82250977 C6.97655146 172.69120649 -0.0513388 173.77381327 -7.09375 175.20703125 C-9.8645677 175.76950724 -12.62079476 176.2880713 -15.40625 176.76171875 C-45.37301335 181.95298022 -74.37955483 190.87163072 -103 201 C-104.03253906 201.36448242 -105.06507813 201.72896484 -106.12890625 202.10449219 C-129.20130525 210.35049538 -151.61419798 220.48673019 -173.39282227 231.68212891 C-174.49553467 232.24722168 -175.59824707 232.81231445 -176.734375 233.39453125 C-178.19182129 234.15020386 -178.19182129 234.15020386 -179.67871094 234.92114258 C-182 236 -182 236 -184 236 C-184.46672119 235.0112085 -184.93344238 234.02241699 -185.41430664 233.00366211 C-193.525052 215.82585981 -201.64559807 198.65376021 -209.9375 181.5625 C-210.24697571 180.92445435 -210.55645142 180.28640869 -210.87530518 179.62902832 C-212.37241318 176.54263431 -213.86980194 173.45637655 -215.3671875 170.37011719 C-219.07676343 162.71357022 -222.74942644 155.03985499 -226.39990234 147.35498047 C-227.97296517 144.05668488 -229.55709242 140.76390506 -231.14295959 137.47175598 C-232.64597653 134.34604019 -234.14029473 131.21621147 -235.63308716 128.08560181 C-236.37448062 126.5352571 -237.11930697 124.98654913 -237.86764526 123.43954468 C-238.91577366 121.27125891 -239.95138575 119.097405 -240.984375 116.921875 C-241.30457108 116.26671402 -241.62476715 115.61155304 -241.95466614 114.9365387 C-244.11397496 110.34192489 -244.11397496 110.34192489 -243 107 C-229.62007026 115.31837773 -216.29030756 123.70589361 -203.02978516 132.21337891 C-188.42136931 141.58433914 -173.72776183 150.81800228 -159 160 C-158.77675092 153.13715806 -159.63612812 146.64984862 -160.6875 139.875 C-160.86466553 138.70501465 -161.04183105 137.5350293 -161.22436523 136.32958984 C-162.78546913 126.13145758 -164.49198003 115.95830571 -166.21142578 105.78588867 C-167.55836298 97.77967315 -168.79241626 89.76853101 -169.90209961 81.72631836 C-171.02563228 73.63831847 -172.32452878 65.58052656 -173.64282227 57.5222168 C-174.53783653 52.0232527 -175.35208523 46.53372105 -176 41 C-173.27135853 42.31109184 -170.74989857 43.75112068 -168.234375 45.43359375 C-167.51749512 45.9119165 -166.80061523 46.39023926 -166.06201172 46.88305664 C-165.29904785 47.39602295 -164.53608398 47.90898926 -163.75 48.4375 C-162.95223145 48.97173584 -162.15446289 49.50597168 -161.33251953 50.05639648 C-154.17216452 54.86187538 -147.06166119 59.73824462 -139.96777344 64.64111328 C-136.64899987 66.93296113 -133.32413855 69.21594423 -130 71.5 C-128.65753773 72.42315621 -127.31508978 73.34633324 -125.97265625 74.26953125 C-123.39832543 76.03950133 -120.82277809 77.80767685 -118.24609375 79.57421875 C-109.37479859 85.65955363 -100.54029408 91.79644976 -91.71411133 97.94702148 C-84.7750295 102.77776703 -77.80671511 107.56348196 -70.81713867 112.32080078 C-64.59715094 116.56433758 -58.4473652 120.90304205 -52.34033203 125.30761719 C-51.68145996 125.77844727 -51.02258789 126.24927734 -50.34375 126.734375 C-49.76818359 127.14913086 -49.19261719 127.56388672 -48.59960938 127.99121094 C-46.85321605 129.18147024 -46.85321605 129.18147024 -44 130 C-43.89236328 129.17983398 -43.78472656 128.35966797 -43.67382812 127.51464844 C-42.88910966 123.4216024 -41.62139397 119.68122123 -40.21875 115.765625 C-39.93352478 114.95585205 -39.64829956 114.1460791 -39.35443115 113.31176758 C-38.73362947 111.5501083 -38.11072414 109.78918925 -37.48596191 108.02893066 C-35.77645073 103.21067857 -34.08363257 98.38657109 -32.390625 93.5625 C-32.03369568 92.54625549 -31.67676636 91.53001099 -31.309021 90.48297119 C-27.20312477 78.76794093 -23.22827668 67.00883183 -19.25 55.25 C-12.99469151 36.77421007 -6.61645212 18.34968544 0 0 Z " fill="#C2DDAE" transform="translate(930,286)"/>
<path d="M0 0 C1.55680772 1.06145981 3.0974886 2.14679732 4.625 3.25 C6.82548764 4.72246561 9.03050476 6.18188401 11.25 7.625 C11.83322021 8.00720703 12.41644043 8.38941406 13.01733398 8.78320312 C18.15521549 12.08766414 23.50391598 14.83144498 29.03173828 17.42333984 C40.0493809 22.66485249 40.0493809 22.66485249 42.9296875 27.390625 C43.21199219 28.43476562 43.21199219 28.43476562 43.5 29.5 C43.80550781 30.52867187 43.80550781 30.52867187 44.1171875 31.578125 C46.70344388 45.18581241 45.78936824 59.35278542 45.65771484 73.14599609 C45.625327 76.64580056 45.63367073 80.14458451 45.64453125 83.64453125 C45.53733506 97.24626636 45.53733506 97.24626636 41.75 101.9375 C39.82421875 103.6171875 39.82421875 103.6171875 37.625 105.25 C36.82707031 105.93320312 36.02914063 106.61640625 35.20703125 107.3203125 C32.39811114 109.70187844 29.52348474 111.978414 26.625 114.25 C25.53851937 115.11390071 24.45259675 115.97850359 23.3671875 116.84375 C19.80724274 119.67281798 16.2208888 122.46681601 12.625 125.25 C12.0155957 125.72308594 11.40619141 126.19617188 10.77832031 126.68359375 C-20.42922092 150.81263035 -64.89572642 183.19561018 -106.2734375 181.95703125 C-113.43916676 180.32353377 -118.32416337 175.11831829 -122.375 169.25 C-125.15809288 164.3371525 -127.52133571 159.20478429 -129.90933228 154.09191895 C-131.86677865 149.90444348 -133.86796778 145.73796546 -135.8671875 141.5703125 C-136.2586647 140.75220093 -136.65014191 139.93408936 -137.05348206 139.09118652 C-140.91886668 131.04737573 -145.1586551 123.24166723 -149.50390625 115.44921875 C-153.41829909 108.42293128 -157.0856712 101.26776353 -160.77124023 94.11962891 C-163.13799845 89.53383121 -165.51319037 84.95918805 -168.0078125 80.44140625 C-168.39227539 79.74200928 -168.77673828 79.0426123 -169.17285156 78.32202148 C-170.16690076 76.52520771 -171.17276503 74.73494394 -172.1796875 72.9453125 C-173.375 70.25 -173.375 70.25 -172.375 67.25 C-170.80297852 65.83056641 -170.80297852 65.83056641 -168.75390625 64.3515625 C-167.99279541 63.79654053 -167.23168457 63.24151855 -166.44750977 62.66967773 C-165.61920654 62.07743408 -164.79090332 61.48519043 -163.9375 60.875 C-163.08148193 60.2550415 -162.22546387 59.63508301 -161.34350586 58.99633789 C-159.56055797 57.70604018 -157.77544924 56.41872351 -155.98828125 55.13427734 C-153.58555865 53.40182097 -151.19647126 51.65265768 -148.8125 49.89453125 C-132.02228908 37.55230586 -114.57424589 26.39553464 -96.375 16.25 C-95.63523926 15.83153809 -94.89547852 15.41307617 -94.13330078 14.98193359 C-66.1085269 -0.79392748 -31.04668897 -18.31089728 0 0 Z " fill="#000000" transform="translate(1215.375,871.75)"/>
<path d="M0 0 C14.50752576 12.26169881 22.94981179 30.86976656 24.65234375 49.6171875 C25.53203905 82.90485774 10.31486776 115.86041695 -11.9375 139.9375 C-13.8362898 141.93515667 -15.75921836 143.90545699 -17.6875 145.875 C-18.39519531 146.63296875 -19.10289062 147.3909375 -19.83203125 148.171875 C-32.74183914 161.73900509 -32.74183914 161.73900509 -39.35083008 161.96679688 C-40.12193115 161.93650391 -40.89303223 161.90621094 -41.6875 161.875 C-44.03611908 146.82445044 -46.01549322 131.74305263 -47.875 116.625 C-48.15015671 114.40361685 -48.42554611 112.1822625 -48.70117188 109.9609375 C-49.36595272 104.59928608 -50.02790381 99.23729158 -50.6875 93.875 C-54.41854236 93.875 -55.5116098 94.03488037 -58.65136719 95.58398438 C-59.42027283 95.95857788 -60.18917847 96.33317139 -60.98138428 96.71911621 C-61.80737122 97.13149536 -62.63335815 97.54387451 -63.484375 97.96875 C-64.35080627 98.39369751 -65.21723755 98.81864502 -66.10992432 99.25646973 C-68.88946943 100.62196746 -71.66346603 101.99834648 -74.4375 103.375 C-76.25876532 104.2715432 -78.08037666 105.16738383 -79.90234375 106.0625 C-93.20274544 112.60555564 -106.49771 119.17047544 -119.671875 125.96484375 C-124.10064996 127.9646588 -128.86982784 128.62860235 -133.6875 127.875 C-142.8147788 123.23803998 -146.30585531 111.78580102 -150.4375 102.9375 C-154.63793355 94.04970282 -158.99375831 85.28138616 -163.65332031 76.62524414 C-164.23291504 75.54617798 -164.23291504 75.54617798 -164.82421875 74.4453125 C-165.16155029 73.82414551 -165.49888184 73.20297852 -165.84643555 72.56298828 C-166.6875 70.875 -166.6875 70.875 -167.6875 67.875 C-138.13811723 48.07224735 -108.43908875 28.62485107 -77.73193359 10.66064453 C-75.10157297 9.11786526 -72.4810895 7.56001579 -69.86328125 5.99609375 C-62.08006772 1.40125011 -54.52139933 -1.98933203 -45.6875 -4.125 C-44.58019531 -4.42148438 -43.47289062 -4.71796875 -42.33203125 -5.0234375 C-27.53516507 -8.66831527 -12.86168661 -9.25253985 0 0 Z " fill="#000000" transform="translate(1301.6875,1048.125)"/>
<path d="M0 0 C1.01964844 0.77601562 2.03929687 1.55203125 3.08984375 2.3515625 C8.80173336 6.23955044 14.54755177 6.81237304 21.25 7.4375 C22.8479487 7.59205779 24.44562245 7.74949216 26.04296875 7.91015625 C26.74317139 7.975979 27.44337402 8.04180176 28.16479492 8.10961914 C30.0625 8.375 30.0625 8.375 33.0625 9.375 C32.414935 15.00730952 31.06001649 20.20081697 29.4375 25.625 C27.35604294 32.70812035 25.42859316 39.80798917 23.64697266 46.97241211 C7.40267623 111.99237096 7.40267623 111.99237096 -12.9375 125.375 C-23.03263235 130.87594038 -36.96583238 131.11080881 -48.02734375 128.57421875 C-62.73027707 124.08465569 -78.17882525 114.2210563 -86.9375 101.375 C-86.6176673 97.89855759 -85.15631118 96.23647157 -82.6875 93.875 C-82.06230469 93.27558594 -81.43710937 92.67617187 -80.79296875 92.05859375 C-78.58617463 90.05621846 -76.31264638 88.17435332 -73.9375 86.375 C-70.05553208 87.735761 -67.27605413 89.51468216 -64.0625 92.0625 C-55.51592823 98.36300506 -45.36716578 104.74426906 -34.36328125 103.84765625 C-27.47959649 102.50639078 -24.08490001 99.98377446 -20 94.25 C-18.52871016 91.99111765 -17.14253343 89.78506686 -15.9375 87.375 C-17.08605469 87.34921875 -18.23460937 87.3234375 -19.41796875 87.296875 C-35.40618139 86.78040184 -50.80587412 83.8005327 -62.26953125 71.62890625 C-71.75855579 58.80650072 -73.31977216 44.86556203 -71.9375 29.375 C-70.34659 20.42892502 -66.15171768 12.90319921 -59.9375 6.375 C-59.09638672 5.45654297 -59.09638672 5.45654297 -58.23828125 4.51953125 C-42.27987703 -11.16193754 -17.99036527 -12.98886214 0 0 Z " fill="#C2DCAD" transform="translate(804.9375,1710.625)"/>
<path d="M0 0 C45.21 0 90.42 0 137 0 C137 66.53707415 137 66.53707415 124.05078125 80.03125 C119.77726406 83.99411859 115.33964542 86.71158053 110 89 C108.7315625 89.5878125 108.7315625 89.5878125 107.4375 90.1875 C96.93899449 93.68700184 82.56956844 93.66163562 72.41796875 89.25390625 C60.48823989 83.06740712 52.07857025 74.5115683 47.91015625 61.6328125 C44.13976275 48.93960164 44 38.81330243 44 25 C22.22 24.505 22.22 24.505 0 24 C0 16.08 0 8.16 0 0 Z " fill="#C1DCAD" transform="translate(168,951)"/>
<path d="M0 0 C8.41382793 24.44541565 15.31467929 48.33445917 19 74 C19.10530029 74.73331543 19.21060059 75.46663086 19.3190918 76.22216797 C23.50935652 109.11706849 18.64727237 144.8144443 5 175 C-23.50180449 146.80576894 -53.48006998 109.86748715 -54.24121094 67.80957031 C-54.27052729 60.52282891 -53.88144759 53.45514185 -52.75 46.25 C-52.64075195 45.51217285 -52.53150391 44.7743457 -52.41894531 44.01416016 C-50.49479162 33.03234334 -42.29009859 27.27435439 -33.6796875 21.1328125 C-31.74883036 19.79104442 -29.81379813 18.45526791 -27.875 17.125 C-26.86542236 16.42826172 -25.85584473 15.73152344 -24.81567383 15.01367188 C-2.97776435 0 -2.97776435 0 0 0 Z " fill="#010101" transform="translate(1353,865)"/>
<path d="M0 0 C4.17018848 2.43041326 7.86113861 5.34875191 11.63061523 8.35302734 C18.67174359 13.70482204 26.70318842 16.8416666 34.87402344 20.09619141 C35.92235352 20.52335449 36.97068359 20.95051758 38.05078125 21.390625 C38.99743652 21.76050537 39.9440918 22.13038574 40.91943359 22.51147461 C43.08984375 23.80078125 43.08984375 23.80078125 44.04345703 25.60302734 C44.10781444 28.65221378 43.1492285 30.60729439 41.87109375 33.375 C41.35812744 34.50164062 40.84516113 35.62828125 40.31665039 36.7890625 C39.74122132 38.02221623 39.16561412 39.25528684 38.58984375 40.48828125 C38.00205224 41.76901709 37.41540357 43.05027799 36.82983398 44.33203125 C35.58090085 47.06174784 34.3256379 49.78842879 33.06591797 52.51318359 C31.05544276 56.8670718 29.07188449 61.23290298 27.09375 65.6015625 C26.42970057 67.06747011 25.76563816 68.53337185 25.1015625 69.99926758 C24.77720215 70.71531158 24.4528418 71.43135559 24.11865234 72.1690979 C19.48183549 82.3979475 14.80791748 92.60913585 10.08984375 102.80078125 C4.87552305 102.196991 0.08073722 101.01115044 -4.90625 99.359375 C-6.03305931 98.9904287 -6.03305931 98.9904287 -7.18263245 98.61402893 C-8.76952468 98.09178646 -10.35536277 97.56633108 -11.94018555 97.0378418 C-14.30563077 96.2522386 -16.67675152 95.48600877 -19.04882812 94.72070312 C-52.64216393 83.6892184 -52.64216393 83.6892184 -60.8125 69.12109375 C-66.96481588 56.11584238 -68.75568085 40.42475084 -63.84765625 26.67578125 C-57.2230709 12.16124032 -47.79766668 3.67243055 -33.203125 -2.30859375 C-22.72590896 -5.14228919 -9.86013773 -4.41405914 0 0 Z " fill="#C2DDAD" transform="translate(692.91015625,1667.19921875)"/>
<path d="M0 0 C1.18659623 2.56105422 2.17666091 5.03569534 3.1171875 7.6875 C3.41051971 8.48455856 3.70385193 9.28161713 4.006073 10.10282898 C4.64005729 11.82852261 5.26897625 13.5560836 5.89343262 15.2852478 C7.21567208 18.94220764 8.56619179 22.58848885 9.91552734 26.23551941 C10.60518544 28.10000182 11.29365158 29.96492554 11.98095703 31.83027649 C15.16701365 40.47666468 18.40306278 49.1020005 21.75 57.6875 C22.01324066 58.36318024 22.27648132 59.03886047 22.54769897 59.73501587 C26.64689389 70.18913833 31.37696786 80.171612 36.85546875 89.98046875 C41.3184691 98.12380013 42.07886747 105.78588861 41 115 C37.71714522 123.83749501 29.43851711 128.52868534 21.25 132.31640625 C19.50469754 133.07599027 17.75438237 133.82412945 16 134.5625 C14.56370239 135.17617432 14.56370239 135.17617432 13.09838867 135.80224609 C4.62522497 139.3863061 -3.90653526 142.83093766 -12.45336914 146.2350769 C-13.93846415 146.82663596 -15.42284557 147.41998975 -16.90649414 148.01516724 C-19.00122475 148.85345358 -21.09951387 149.68207729 -23.19921875 150.5078125 C-24.41440186 150.98879395 -25.62958496 151.46977539 -26.8815918 151.96533203 C-30 153 -30 153 -34 153 C-35.5094588 149.90034597 -37.00590667 146.79458597 -38.5 143.6875 C-38.92925781 142.80642578 -39.35851562 141.92535156 -39.80078125 141.01757812 C-40.20683594 140.17001953 -40.61289063 139.32246094 -41.03125 138.44921875 C-41.40830078 137.66893311 -41.78535156 136.88864746 -42.17382812 136.0847168 C-43 134 -43 134 -43 131 C-41.89881836 130.55515259 -41.89881836 130.55515259 -40.77539062 130.10131836 C-23.67766041 123.21132775 -23.67766041 123.21132775 -6.6875 116.0625 C-5.51574219 115.55847656 -4.34398437 115.05445313 -3.13671875 114.53515625 C4.07944918 111.00345763 7.12093603 107.91653777 10.375 100.75 C10.72949219 100.00492188 11.08398438 99.25984375 11.44921875 98.4921875 C12.314334 96.66843103 13.15925886 94.83512026 14 93 C0.82841069 86.17992806 -7.46840684 84.67338826 -21.78125 89.15625 C-29.48073079 91.75940779 -36.91732121 95.07313267 -44.35302734 98.34106445 C-45.4302002 98.8124585 -46.50737305 99.28385254 -47.6171875 99.76953125 C-48.58253418 100.19854736 -49.54788086 100.62756348 -50.54248047 101.06958008 C-53 102 -53 102 -56 102 C-57.31746333 99.41909233 -58.62909617 96.83549542 -59.9375 94.25 C-60.31068359 93.52039062 -60.68386719 92.79078125 -61.06835938 92.0390625 C-61.60493164 90.97558594 -61.60493164 90.97558594 -62.15234375 89.890625 C-62.48226318 89.24125977 -62.81218262 88.59189453 -63.15209961 87.92285156 C-64.01452116 85.96706921 -64.54374179 84.08459306 -65 82 C-58.19924495 78.46320317 -51.31533689 75.43428762 -44.1875 72.625 C-23.42417014 64.35204277 -23.42417014 64.35204277 -11.125 46.5 C-10.40522183 44.67112969 -9.69278926 42.83926351 -9 41 C-9.70253906 40.87753906 -10.40507812 40.75507812 -11.12890625 40.62890625 C-15.20880134 39.73521495 -19.04306376 38.26180527 -22.96484375 36.83984375 C-30.89320795 34.64602354 -35.73011913 37.48820486 -42.75 41.0625 C-50.15224809 44.72047776 -57.54631159 48.20875113 -65.25 51.1875 C-66.3652002 51.62364624 -66.3652002 51.62364624 -67.50292969 52.06860352 C-70.47472985 53.19544021 -72.79482193 54 -76 54 C-77.34208754 50.89954577 -78.67213754 47.79407011 -80 44.6875 C-80.57234375 43.36588867 -80.57234375 43.36588867 -81.15625 42.01757812 C-81.69765625 40.74624023 -81.69765625 40.74624023 -82.25 39.44921875 C-82.58515625 38.66893311 -82.9203125 37.88864746 -83.265625 37.0847168 C-84 35 -84 35 -84 32 C-64.36510882 23.38140853 -44.53319278 15.34020319 -24.54748535 7.57258606 C-20.89285349 6.14936381 -17.25389955 4.69914321 -13.63525391 3.18652344 C-12.94587234 2.90106659 -12.25649078 2.61560974 -11.54621887 2.32150269 C-9.67278211 1.54289175 -7.80363692 0.75397744 -5.93481445 -0.03564453 C-3 -1 -3 -1 0 0 Z " fill="#C1DCAD" transform="translate(288,1217)"/>
<path d="M0 0 C0.82628906 0.44601562 1.65257812 0.89203125 2.50390625 1.3515625 C13.70441527 8.136304 20.3164782 18.46088555 23.8125 30.875 C26.39489008 42.49575534 25.62501043 53.85624964 19.64453125 64.38671875 C18.20837242 66.40812193 16.70650979 68.20258654 15 70 C14.49855469 70.52980469 13.99710937 71.05960938 13.48046875 71.60546875 C5.40241745 79.25111827 -6.2525272 83.7577215 -17 86 C-17.99 85.67 -18.98 85.34 -20 85 C-20.85620117 83.17529297 -20.85620117 83.17529297 -21.54296875 80.7421875 C-21.80827393 79.82099121 -22.0735791 78.89979492 -22.34692383 77.95068359 C-22.62431396 76.93570801 -22.9017041 75.92073242 -23.1875 74.875 C-23.48358154 73.82779785 -23.77966309 72.7805957 -24.0847168 71.70166016 C-26.99534009 61.29003133 -29.68665923 50.81663036 -32.3347168 40.33544922 C-32.65351807 39.07748535 -32.97231934 37.81952148 -33.30078125 36.5234375 C-33.58091064 35.40888184 -33.86104004 34.29432617 -34.1496582 33.14599609 C-34.98628316 30.05074799 -35.95507687 27.03059105 -37 24 C-43.15611634 28.33726378 -45.81448448 32.92174694 -47.5234375 40.2421875 C-48.60345278 51.30303367 -40.27690672 62.52452701 -34 71 C-36.91214197 76.3762621 -40.24351901 81.17918273 -44 86 C-57.27177311 79.65263025 -65.03082357 67.61751788 -70.23828125 54.32421875 C-74.19973682 42.23670046 -72.20325777 30.45496808 -66.64453125 19.2734375 C-60.10290743 7.66337055 -50.15829809 0.33422673 -37.6953125 -4.203125 C-24.98786014 -6.94342128 -11.49497083 -6.2340014 0 0 Z " fill="#C1DCAD" transform="translate(255,1131)"/>
<path d="M0 0 C10.79726079 7.59130489 15.03367312 18.65809038 18.05859375 31.05859375 C18.77184293 36.59062396 18.5390625 42.20733566 18.5390625 47.78515625 C-2.5809375 47.78515625 -23.7009375 47.78515625 -45.4609375 47.78515625 C-40.17787005 58.36207552 -40.17787005 58.36207552 -31.4609375 64.78515625 C-22.7053201 65.71240045 -16.20056345 63.65496923 -8.4609375 59.78515625 C-4.43272075 59.27800666 -0.30779482 58.89805294 3.42578125 60.69140625 C6.92834636 63.44405188 9.03837881 66.63620721 10.5390625 70.78515625 C10.26131805 73.32453411 9.8411708 74.47673759 8.04296875 76.3125 C-6.15518841 86.62544715 -20.0861444 90.22944822 -37.4609375 88.78515625 C-48.81885423 86.46043645 -57.80356397 79.06154729 -64.4609375 69.78515625 C-73.12191755 56.00836416 -75.22082348 40.97676266 -71.609375 25.0234375 C-70.46297493 22.04045772 -69.153303 19.49294106 -67.4609375 16.78515625 C-66.60628906 15.36203125 -66.60628906 15.36203125 -65.734375 13.91015625 C-58.96673423 3.66121879 -49.28406925 -3.06721659 -37.64453125 -6.796875 C-24.7097647 -9.27276055 -11.26018981 -6.60359834 0 0 Z " fill="#C1DCAC" transform="translate(1023.4609375,1740.21484375)"/>
<path d="M0 0 C9.5927162 7.16256143 16.08774773 16.17148072 19.34375 27.75 C21.16528795 42.56751064 16.59376089 55.37336229 7.6640625 67.125 C7.22835937 67.66125 6.79265625 68.1975 6.34375 68.75 C-11.6242859 60.44544559 -28.11455597 49.49483693 -44.08837891 37.87231445 C-45.58809018 36.79879021 -47.12166677 35.77305549 -48.65625 34.75 C-49.10779377 42.27572947 -49.30020744 48.51923579 -44.65625 54.75 C-39.8467105 59.79415118 -33.98270482 62.02009141 -27.65625 64.75 C-18.96363874 68.52045441 -11.97935244 73.83871825 -4.65625 79.75 C-13.65500267 87.08459978 -26.59492234 86.85822375 -37.65625 85.75 C-49.49493373 83.35949655 -60.3434128 75.16792363 -67.3125 65.4375 C-74.87969756 53.56738618 -76.50321403 41.43140072 -73.59375 27.625 C-69.89796665 14.7155428 -61.82350438 4.02337959 -50.15625 -2.625 C-48.33727208 -3.52946416 -46.50449004 -4.40694314 -44.65625 -5.25 C-43.93953125 -5.5903125 -43.2228125 -5.930625 -42.484375 -6.28125 C-28.58489104 -11.9246495 -12.15826466 -7.89497705 0 0 Z " fill="#C1DCAC" transform="translate(608.65625,1621.25)"/>
<path d="M0 0 C9.28984651 6.47768003 16.29175194 17.04822496 19 28 C20.76668544 41.38691648 19.24400692 51.74726217 10.984375 62.6640625 C5.83711959 68.79262919 -0.17091048 73.82083069 -7 78 C-7.66 78 -8.32 78 -9 78 C-10.32177734 76.50976562 -10.32177734 76.50976562 -11.8359375 74.40625 C-12.39949951 73.63120117 -12.96306152 72.85615234 -13.54370117 72.05761719 C-14.14802979 71.21360352 -14.7523584 70.36958984 -15.375 69.5 C-16.6490956 67.74432415 -17.92384565 65.98912306 -19.19921875 64.234375 C-19.83907715 63.35072266 -20.47893555 62.46707031 -21.13818359 61.55664062 C-23.7827522 57.92512706 -26.48121741 54.33562234 -29.1875 50.75 C-34.85908945 43.21578523 -40.44039746 35.61709324 -46 28 C-49.85384697 34.46895742 -52.64955493 40.37791859 -51 48 C-48.6887695 54.25123513 -45.33695324 57.85842782 -40.25 62 C-32.71669412 68.50853308 -28.57899297 75.78576034 -25 85 C-25 85.66 -25 86.32 -25 87 C-38.28856394 87.90603845 -51.37526037 82.22283328 -61.375 73.75 C-70.77535307 64.71119897 -75.89663998 53.05506666 -76.47290039 39.99316406 C-76.65275198 26.35036759 -72.17110547 15.87107393 -63.0390625 5.84765625 C-45.78937327 -10.85696845 -19.97658684 -13.06879513 0 0 Z " fill="#C1DBAC" transform="translate(380,1404)"/>
<path d="M0 0 C5.34634876 1.58175999 9.1177231 5.11623219 13.3125 8.625 C14.42334961 9.54152344 14.42334961 9.54152344 15.55664062 10.4765625 C17.37580451 11.97883977 19.18998451 13.486724 21 15 C19.72515583 17.72746137 18.34470496 19.98315488 16.41796875 22.29296875 C15.90500244 22.91421631 15.39203613 23.53546387 14.86352539 24.17553711 C14.03389282 25.17145874 14.03389282 25.17145874 13.1875 26.1875 C8.52302782 31.85024852 3.98386096 37.58313952 -0.4375 43.4375 C-6.5758398 51.54594033 -13.01579115 59.38090947 -19.51367188 67.20214844 C-22.00648136 70.21743244 -24.44066801 73.278159 -26.87109375 76.34375 C-28.61869517 78.52424352 -30.38353831 80.68698693 -32.16015625 82.84375 C-40.58493319 93.0497347 -40.58493319 93.0497347 -48 104 C-47.42894531 104.44988281 -46.85789062 104.89976563 -46.26953125 105.36328125 C-41.29667032 109.30836488 -36.39745104 113.32559947 -31.5625 117.4375 C-22.86738833 124.82866389 -14.05218893 132.04881294 -5 139 C-6.35216838 141.88387779 -7.89752336 144.35417975 -9.8203125 146.890625 C-10.62275391 147.95410156 -10.62275391 147.95410156 -11.44140625 149.0390625 C-12.27478516 150.13347656 -12.27478516 150.13347656 -13.125 151.25 C-13.68832031 151.99507812 -14.25164062 152.74015625 -14.83203125 153.5078125 C-16.21848254 155.34074811 -17.60787768 157.17137013 -19 159 C-23.77461379 155.94218407 -28.13085368 152.54567954 -32.5 148.9375 C-37.62558554 144.7369741 -42.77423687 140.57528154 -48 136.5 C-53.72849609 132.02768127 -59.37365892 127.4596563 -65.00390625 122.86450195 C-71.60149772 117.48943385 -78.28904412 112.23244842 -85 107 C-83.50505362 103.66687974 -81.58779967 101.1117075 -79.25 98.3125 C-78.44820313 97.34570312 -77.64640625 96.37890625 -76.8203125 95.3828125 C-76.37333008 94.84688477 -75.92634766 94.31095703 -75.46582031 93.75878906 C-72.67511874 90.41031903 -69.89951015 87.04938948 -67.125 83.6875 C-66.52139648 82.95635986 -65.91779297 82.22521973 -65.29589844 81.47192383 C-61.18253828 76.47484257 -57.15926195 71.41658423 -53.18408203 66.30932617 C-49.53559718 61.63939847 -45.77999666 57.06385988 -42 52.5 C-37.28696152 46.80855537 -32.65546999 41.06675353 -28.11328125 35.23828125 C-24.63146045 30.77910724 -21.07753856 26.38264229 -17.5 22 C-11.57343132 14.73862653 -5.7630951 7.39154482 0 0 Z " fill="#C1DCAD" transform="translate(526,1506)"/>
<path d="M0 0 C8.13709505 0.71378027 16.01731928 2.32773882 24 4 C23.67888177 6.26874214 23.35707596 8.53738359 23.03442383 10.8059082 C22.75955757 12.74046182 22.48597473 14.67519819 22.21362305 16.61010742 C21.49304354 21.69507208 20.7025363 26.75402032 19.8125 31.8125 C17.80892648 45.1466272 17.67433304 57.34779549 25.96484375 68.6875 C29.59143589 72.80831103 33.10373557 74.76712542 38.5625 75.4375 C43.48141591 74.81145616 46.61158304 73.38841696 50.125 69.875 C54.87532098 62.5911745 57.06803858 54.71830764 59 46.3125 C59.38019287 44.69710327 59.38019287 44.69710327 59.76806641 43.04907227 C62.22005031 32.4328671 64.18665932 21.74137687 66 11 C68.56364483 10.89154969 71.12266279 10.81250256 73.6875 10.75 C74.40873047 10.71648437 75.12996094 10.68296875 75.87304688 10.6484375 C79.77954343 10.57708596 81.56934334 10.72465281 84.95703125 12.890625 C88.79366836 16.85197116 88.19724329 20.31814651 88.15136719 25.62158203 C87.91160128 30.97300234 87.05265861 36.16812169 86.125 41.4375 C85.74923039 43.64049386 85.37422144 45.84361762 85 48.046875 C84.73316406 49.60051758 84.73316406 49.60051758 84.4609375 51.18554688 C84.08816363 53.46167883 83.76345343 55.72504379 83.5 58.015625 C81.80969487 72.3127892 75.88036061 83.66201781 64.7734375 92.83984375 C54.86053014 100.00305772 44.3815936 101.19869798 32.4765625 99.49609375 C20.44743683 97.21290829 9.69576565 92.78808772 2.27734375 82.64453125 C-2.71449037 74.73363934 -5.56008807 66.94808549 -5.4375 57.5625 C-5.43355225 56.74265625 -5.42960449 55.9228125 -5.42553711 55.078125 C-5.15913486 42.6118373 -3.29379651 30.2101923 -1.71000671 17.85777283 C-0.96097427 11.91770612 -0.42701118 5.97102776 0 0 Z " fill="#C1DCAD" transform="translate(851,1721)"/>
<path d="M0 0 C2 0 2 0 3.375 1.36328125 C3.91125 2.00652344 4.4475 2.64976563 5 3.3125 C7.93749422 6.77017549 10.93724616 10.15244741 14 13.5 C17.44845611 17.28133875 20.85695581 21.08894172 24.203125 24.9609375 C25.56582122 26.50730147 26.95635461 28.02918956 28.359375 29.5390625 C29.16890625 30.41304687 29.9784375 31.28703125 30.8125 32.1875 C31.93591797 33.38439453 31.93591797 33.38439453 33.08203125 34.60546875 C35.00810563 37.01011966 36.02480663 39.09505891 37 42 C35.26346561 43.70360012 33.51314607 45.38683827 31.75 47.0625 C31.25886719 47.54783203 30.76773438 48.03316406 30.26171875 48.53320312 C26.58080773 51.99325948 26.58080773 51.99325948 23.98046875 52.0234375 C21.39050731 50.68503533 18.98841828 49.18090041 16.5625 47.5625 C8.60051122 42.25819871 2.55581906 41.10377824 -7 42 C-16.22195665 44.39803061 -24.152611 52.99993805 -30.5625 59.625 C-36.71176162 65.90626724 -43.22646818 71.28343943 -52 73 C-56.33343856 68.19200621 -60.3320339 63.33522342 -64 58 C-62.39224723 53.50045031 -58.86022115 51.03202113 -55.3125 48.0625 C-53.94386276 46.89730883 -52.57537734 45.73193932 -51.20703125 44.56640625 C-50.50658691 43.97359863 -49.80614258 43.38079102 -49.08447266 42.77001953 C-45.86773099 40.03853944 -42.68471482 37.26867645 -39.5 34.5 C-38.25018289 33.41645568 -37.00018229 32.33312296 -35.75 31.25 C-34.821875 30.445625 -34.821875 30.445625 -33.875 29.625 C-28.25 24.75 -28.25 24.75 -26.37182617 23.12231445 C-25.13231952 22.04803225 -23.89289777 20.97365208 -22.65356445 19.89916992 C-19.3687358 17.05151045 -16.08208911 14.20598316 -12.79296875 11.36328125 C-12.10589844 10.76902344 -11.41882813 10.17476562 -10.7109375 9.5625 C-9.38986254 8.41994868 -8.06827091 7.27799441 -6.74609375 6.13671875 C-4.43929807 4.14083901 -2.15775913 2.15775913 0 0 Z " fill="#C1DCAC" transform="translate(419,1463)"/>
<path d="M0 0 C1.64269445 7.52075707 2.74622998 15.04208841 3.625 22.6875 C3.82174316 24.39474243 3.82174316 24.39474243 4.02246094 26.13647461 C4.92771658 34.40428018 5.68526596 42.68456112 5 51 C2.88948256 53.11051744 -1.15873698 53.04423657 -4.0625 53.5625 C-5.20041992 53.77036133 -5.20041992 53.77036133 -6.36132812 53.98242188 C-8.24024975 54.32511827 -10.12004701 54.6630073 -12 55 C-12.35191406 54.0821875 -12.70382813 53.164375 -13.06640625 52.21875 C-16.67288925 43.11820934 -20.20334709 34.96362474 -29.5 30.5 C-39.74496574 27.02320167 -50.3795291 28.88336884 -60.70410156 30.9230957 C-68.58394351 32.42570005 -77.21102508 33.33857843 -85 31 C-85.3139878 29.00023304 -85.62610943 27.00017303 -85.9375 25 C-86.11152344 23.88625 -86.28554687 22.7725 -86.46484375 21.625 C-87.0361553 17.75509401 -87.52738954 13.88306973 -88 10 C-77.10336462 8.61193432 -66.20427594 7.24850176 -55.29296875 5.98046875 C-54.1786145 5.85072159 -54.1786145 5.85072159 -53.04174805 5.71835327 C-49.3675612 5.29100083 -45.69306705 4.86658438 -42.01806641 4.44628906 C-34.62046424 3.59276932 -27.25592604 2.63239657 -19.9050293 1.43041992 C-13.29821892 0.45153038 -6.67532118 -0.0265337 0 0 Z " fill="#C1DCAD" transform="translate(258,1058)"/>
<path d="M0 0 C3.35924193 3.24437357 5.70635601 6.49038486 8.125 10.5 C8.80820312 11.6240625 9.49140625 12.748125 10.1953125 13.90625 C11.56100627 16.24743933 12.80736142 18.5714019 14 21 C13.17612793 21.4218457 12.35225586 21.84369141 11.50341797 22.27832031 C-10.75276296 33.68650873 -32.80869802 45.3611769 -54.50390625 57.81323242 C-55.41140625 58.33119385 -56.31890625 58.84915527 -57.25390625 59.3828125 C-58.05127197 59.84059082 -58.8486377 60.29836914 -59.67016602 60.77001953 C-62.06078951 62.03209238 -64.47422108 63.04118354 -67 64 C-68.84033976 60.87907566 -70.67106256 57.75261783 -72.5 54.625 C-73.02464844 53.73554687 -73.54929687 52.84609375 -74.08984375 51.9296875 C-74.58613281 51.07890625 -75.08242188 50.228125 -75.59375 49.3515625 C-76.05458984 48.56604004 -76.51542969 47.78051758 -76.99023438 46.97119141 C-78 45 -78 45 -78 43 C-77.38294189 42.6690332 -76.76588379 42.33806641 -76.13012695 41.99707031 C-65.14303997 36.09586437 -54.18151375 30.16456018 -43.375 23.9375 C-33.54618663 18.27407481 -23.60733408 12.82676554 -13.63183594 7.42675781 C-9.08274068 4.96062491 -4.54159956 2.47990236 0 0 Z " fill="#C1DBAC" transform="translate(346,1349)"/>
<path d="M0 0 C8.58994925 3.50727513 15.50635428 9.66837462 22.3828125 15.7421875 C24.76691932 17.98580394 24.76691932 17.98580394 27 19 C27.85716625 22.91952087 28.06648407 26.10632703 27 30 C23.58291912 33.34459734 19.81310824 35.652054 15.68017578 38.01855469 C13.36704099 39.36973194 11.19315264 40.90117988 9 42.4375 C2.53619187 46.86874347 -3.24386569 47.90135851 -11 47 C-16.55526688 45.11426721 -20.27285621 41.3947309 -22.90625 36.21875 C-26.60017637 27.59958846 -25.38451446 19.54881669 -22 11 C-17.17665043 1.87008831 -10.27698821 -2.08262145 0 0 Z " fill="#020302" transform="translate(784,1726)"/>
<path d="M0 0 C5.40032881 2.80520513 10.36649984 6.19678808 15.359375 9.6640625 C18.16734423 11.70850977 18.16734423 11.70850977 20.4140625 12.7734375 C21.12852479 16.63442061 21.29558694 19.92859643 20.4140625 23.7734375 C17.24727785 27.47686536 13.40271276 30.01361383 9.4140625 32.7734375 C7.61272872 34.24081614 5.82039406 35.71934059 4.0390625 37.2109375 C0.15589688 40.42526356 -3.2910121 42.34647464 -8.2734375 43.2734375 C-17.45201827 41.88799135 -24.2563226 34.95796739 -29.5859375 27.7734375 C-32.66829111 22.87380049 -32.06585618 17.35999094 -31.5859375 11.7734375 C-29.4483399 5.58565497 -25.3847599 1.58867325 -19.7109375 -1.5390625 C-12.47491862 -4.82082571 -7.0004703 -3.06602876 0 0 Z " fill="#030302" transform="translate(685.5859375,1691.2265625)"/>
<path d="M0 0 C16.17 0 32.34 0 49 0 C38.57368421 34.25789474 38.57368421 34.25789474 34 38 C28.78664985 39.73778338 23.43122165 39.56161434 18 39 C9.79204377 34.11015373 6.34001056 20.57569563 3.125 11.9375 C2.81449707 11.10395996 2.50399414 10.27041992 2.18408203 9.41162109 C1.89903809 8.62480957 1.61399414 7.83799805 1.3203125 7.02734375 C1.06523926 6.32343506 0.81016602 5.61952637 0.54736328 4.89428711 C0 3 0 3 0 0 Z " fill="#010101" transform="translate(235,976)"/>
<path d="M0 0 C5.70701644 5.35032791 11.82999907 11.24368121 14.1875 18.8125 C13.80146256 25.3751364 9.35282822 28.87934733 4.9375 33.328125 C3 35 3 35 0 36 C-2.16579126 34.16555372 -4.30550075 32.31053389 -6.4375 30.4375 C-7.04916016 29.92380859 -7.66082031 29.41011719 -8.29101562 28.88085938 C-11.38179645 26.13160129 -12.84940495 24.45833276 -14.16796875 20.4453125 C-13.95541974 16.08558633 -12.77864916 14.64458517 -9.875 11.4375 C-9.04871094 10.50164062 -8.22242188 9.56578125 -7.37109375 8.6015625 C-6.58863281 7.74304687 -5.80617188 6.88453125 -5 6 C-3.97159636 4.77716013 -2.94880572 3.54951743 -1.9375 2.3125 C-1.298125 1.549375 -0.65875 0.78625 0 0 Z " fill="#C0DBAC" transform="translate(377,1323)"/>
<path d="M0 0 C7.92976239 1.19233746 17.19093719 6.16930113 22.1796875 12.49609375 C26.25615604 19.0325002 25.34669889 26.60375704 25 34 C21.86272158 34.52681116 19.12285008 34.67821407 16 34 C13.27583393 31.63056674 11.65795126 28.73689328 9.875 25.625 C8.85753552 23.97348698 7.83931023 22.32244243 6.8203125 20.671875 C6.33981445 19.86943359 5.85931641 19.06699219 5.36425781 18.24023438 C3.60861561 15.35731152 1.71099876 12.62198612 -0.25 9.875 C-0.79140625 9.10929687 -1.3328125 8.34359375 -1.890625 7.5546875 C-2.25671875 7.04164062 -2.6228125 6.52859375 -3 6 C-2 4 -1 2 0 0 Z " fill="#040503" transform="translate(352,1417)"/>
<path d="M0 0 C7.74592532 5.63340023 10.97618854 13.75171404 12.75 23 C12.28540039 25.18457031 12.28540039 25.18457031 11.75 27 C2.49133623 21.20376731 -6.75816229 15.39272211 -15.875 9.375 C-16.82354858 8.7555249 -16.82354858 8.7555249 -17.79125977 8.12353516 C-22.13186823 5.23626354 -22.13186823 5.23626354 -23.25 3 C-15.36461331 -0.75814174 -8.54310635 -2.62864811 0 0 Z " fill="#060705" transform="translate(593.25,1638)"/>
<path d="M0 0 C7.5475802 2.19302847 15.29111436 6.76476206 19.75 13.4375 C21.74255749 19.11628886 21.30301656 23.21367527 18.7578125 28.65625 C16.11450129 33.31286042 13.57685284 37.03850698 9 40 C7.43173467 35.55186045 6.26556897 31.08894537 5.2734375 26.484375 C5.12089508 25.78733459 4.96835266 25.09029419 4.81118774 24.37213135 C4.49201719 22.9102142 4.17444328 21.44794763 3.85839844 19.98535156 C3.37325309 17.74192186 2.88231804 15.49981525 2.390625 13.2578125 C2.0803881 11.83340758 1.77048049 10.40893088 1.4609375 8.984375 C1.31409515 8.31355896 1.16725281 7.64274292 1.01596069 6.95159912 C0 2.23126589 0 2.23126589 0 0 Z " fill="#060705" transform="translate(237,1149)"/>
<path d="M0 0 C6.69936878 3.09987742 12.18090129 8.49808621 17 14 C17 14.33 17 14.66 17 15 C4.13 15 -8.74 15 -22 15 C-20.34787737 11.69575474 -19.00985224 9.63998539 -16.625 6.9375 C-16.03976562 6.26589844 -15.45453125 5.59429688 -14.8515625 4.90234375 C-10.17008677 0.09247311 -6.65440852 -1.29450712 0 0 Z " fill="#040504" transform="translate(1000,1754)"/>
</svg>
